<svg width="429" height="157" viewBox="0 0 429 157" fill="none" xmlns="http://www.w3.org/2000/svg">
<g clip-path="url(#clip0)">
<path d="M268.147 92.5173C272.695 67.138 252.262 43.4191 222.509 39.5397C192.756 35.6602 164.95 53.0893 160.402 78.4686C155.854 103.848 176.287 127.567 206.039 131.446C235.792 135.326 263.599 117.897 268.147 92.5173Z" fill="white"/>
<path d="M270.407 61.6668C270.407 61.6668 247.583 69.7796 245.102 69.8062C242.621 69.834 224.197 69.585 217.754 71.1624C211.309 72.7409 188.997 83.4295 183.135 88.3368C177.273 93.2441 197.654 110.492 207.36 111.431C217.066 112.369 241.697 101.779 248.327 99.6793C254.956 97.5798 259.863 90.4605 259.863 90.4605L279.269 85.9206C279.269 85.923 285.196 68.4295 270.407 61.6668Z" fill="#DB876C"/>
<path d="M249.67 83.5504C242.832 82.4202 235.177 83.5842 229.226 86.6688C222.873 89.9625 219.692 95.3147 216.784 100.923C216.662 101.159 217.113 101.355 217.26 101.127C220.614 95.9444 224.192 90.6793 230.368 87.62C236.292 84.6841 242.907 84.2478 249.596 84.4835C250.322 84.5089 250.345 83.6616 249.67 83.5504Z" fill="#B25F48"/>
<path d="M152.857 87.1753C152.857 87.1753 147.234 77.2591 159.311 64.0238C159.311 64.0238 178.559 68.5685 181.789 68.0596C187.522 67.1567 204.882 63.4835 211.466 63.938C218.051 64.3924 230.545 73.3779 238.304 74.9396C246.064 76.5012 246.992 77.9649 246.395 79.6861C245.799 81.4073 233.44 82.2232 221.563 78.6382C221.563 78.6382 245.977 94.031 247.22 97.5193C248.464 101.008 243.314 102.552 241.994 102.145C241.994 102.145 240.77 104.147 238.479 105.213C235.582 106.56 232.265 106.052 232.265 106.052C232.265 106.052 231.253 111.031 224.385 110.125C224.385 110.125 225.01 113.588 219.22 113.695C213.429 113.803 195.111 109.065 187.896 105.237C180.681 101.408 171.562 93.0048 169.645 92.2192C167.728 91.4323 152.857 87.1753 152.857 87.1753Z" fill="#22353A"/>
<path d="M224.305 109.812C216.48 106.568 208.169 104.386 200.503 100.771C200.235 100.645 200.014 100.975 200.265 101.119C207.272 105.123 215.545 109.29 224.038 110.351C224.388 110.394 224.69 109.971 224.305 109.812Z" fill="#1B292D"/>
<path d="M232.248 105.717C224.484 100.742 215.689 97.5133 207.769 92.9807C207.632 92.9021 207.456 93.0906 207.589 93.1789C215.227 98.2433 223.162 102.651 232.028 106.007C232.451 106.168 232.635 105.966 232.248 105.717Z" fill="#1B292D"/>
<path d="M242.177 101.724C239.125 98.5866 234.528 96.1958 230.726 93.724C226.484 90.967 222.151 88.326 217.773 85.7272C217.547 85.5919 217.253 85.9085 217.474 86.0584C221.653 88.8783 225.825 91.7031 230.029 94.4964C233.781 96.9899 237.611 100.229 241.878 102.056C242.136 102.164 242.357 101.908 242.177 101.724Z" fill="#1B292D"/>
<path d="M212.032 68.8743C208.063 70.2655 206.273 73.3235 202.327 77.2542C199.385 80.1841 193.503 83.3582 196.059 85.581C198.615 87.8038 206.794 83.919 210.565 81.2587C214.334 78.5983 220.826 78.4242 221.562 78.6394C222.299 78.8545 233.148 83.7099 241.152 82.8143C249.158 81.9186 253.072 68.5467 253.072 68.5467C253.072 68.5467 244.161 69.0774 238.14 67.5314C226.614 64.5725 219.097 66.3964 212.032 68.8743Z" fill="#DB876C"/>
<path d="M187.771 106.838C187.19 110.066 192.598 112.855 194.941 111.615C197.285 110.375 204.702 100.768 204.196 98.809C203.69 96.8497 200.625 95.2216 198.461 96.5403C196.297 97.8578 188.229 104.303 187.771 106.838Z" fill="#DB876C"/>
<path d="M181.908 99.9367C180.591 102.763 184.817 106.256 187.248 105.548C189.68 104.839 198.759 97.4396 198.778 95.5709C198.798 93.7022 196.415 91.6801 194.128 92.4911C191.842 93.3034 182.942 97.7164 181.908 99.9367Z" fill="#DB876C"/>
<path d="M197.221 111.325C197.464 114.359 203.042 115.954 204.877 114.421C206.712 112.887 211.158 102.869 210.231 101.176C209.303 99.4823 206.13 98.5358 204.478 100.11C202.827 101.685 197.031 108.942 197.221 111.325Z" fill="#DB876C"/>
<path d="M205.736 114.255C206.6 116.96 211.982 117.538 213.314 115.867C214.646 114.197 216.533 104.455 215.336 103.068C214.137 101.682 211.068 101.317 209.91 102.996C208.751 104.674 205.057 112.13 205.736 114.255Z" fill="#DB876C"/>
<path d="M94.6092 118.615C115.892 100.46 115.892 71.0261 94.6092 52.8716C73.3261 34.7171 38.8195 34.7171 17.5364 52.8716C-3.74666 71.0261 -3.74666 100.46 17.5364 118.615C38.8195 136.769 73.3261 136.769 94.6092 118.615Z" fill="white"/>
<path d="M102.659 106.369C99.1662 112.641 91.1455 116.749 83.0897 116.669C80.4659 120.984 75.5704 124.504 70.4519 126.029C63.6395 128.049 56.1934 126.947 50.5066 123.429C44.6574 128.159 32.8332 126.619 28.9645 120.758C23.5722 122.433 17.4141 119.457 15.0993 115.129C12.8545 110.943 13.8829 106.543 16.9365 103.147C8.87752 101.561 3.40562 93.9664 4.74932 87.0188C6.05321 80.3332 12.5599 75.7553 20.006 75.5176C18.9329 66.2016 23.5022 56.7185 34.9427 53.5475C46.6172 50.3208 55.9053 56.3084 61.6192 64.3221C66.7313 60.3689 74.0579 58.8275 80.5726 61.6576C86.8182 64.3737 88.8306 69.5627 88.4724 74.9391C92.4494 74.1392 96.6651 74.567 99.2076 77.7516C101.25 80.2775 101.26 84.0039 99.0134 86.39C104.802 91.5464 106.284 99.8969 102.659 106.369Z" fill="#2C4349"/>
<path d="M46.7828 74.3674C46.5917 74.5249 46.2542 74.639 46.0664 74.4217C45.8785 74.2017 46.0218 73.7794 46.1109 73.5512C46.1109 73.5322 44.7163 73.1003 43.3121 72.6495C43.2118 72.7948 43.1067 72.9387 42.9969 73.0773C42.3425 73.9111 41.3953 74.7585 40.3031 75.3696C40.397 75.5964 40.4878 75.8096 40.5706 76.0011C40.725 75.9468 40.9001 75.9087 41.0355 75.9413C41.1501 75.9712 41.1994 76.0445 41.2042 76.126C41.1692 76.4791 40.534 76.748 40.276 76.7575C40.0977 76.7629 39.8669 76.6937 39.8844 76.5117C39.9035 76.3311 40.1948 76.1708 40.362 76.088C40.362 76.0758 40.2187 75.8476 40.0118 75.5217C39.2364 75.9155 38.3958 76.1817 37.5425 76.2347C37.041 76.2659 36.5506 76.2469 36.0794 76.1817C35.8756 76.7955 35.6782 77.3876 35.5174 77.8874C35.7578 77.9349 36.0109 78.015 36.1415 78.1576C36.2497 78.2771 36.2354 78.4034 36.1606 78.5039C35.761 78.9045 34.7198 78.7633 34.3998 78.5881C34.1769 78.4659 33.9683 78.212 34.1737 78.0055C34.3791 77.8005 34.8965 77.8195 35.1783 77.8426C35.1942 77.8426 35.3056 77.0386 35.4473 76.0676C34.2294 75.796 33.1404 75.227 32.26 74.4842C31.2332 75.064 30.1235 75.6534 29.2845 76.1206C29.4278 76.2931 29.5535 76.4968 29.5392 76.6747C29.5281 76.8254 29.4198 76.9137 29.2845 76.9436C28.6747 77.0196 28.0061 76.3216 27.9042 76.0092C27.8341 75.792 27.8739 75.4823 28.1876 75.4457C28.5028 75.4076 28.8721 75.7145 29.0664 75.8911C29.0998 75.8911 30.4499 74.859 31.6853 73.9423C31.4481 73.6952 31.2332 73.4331 31.0389 73.1628C30.3543 73.3448 29.6554 73.5213 29.1046 73.6666C29.1603 73.8024 29.1969 73.9532 29.1507 74.0673C29.1109 74.1637 29.0234 74.2031 28.9279 74.2003C28.5155 74.1542 28.2321 73.6001 28.2321 73.3801C28.2337 73.228 28.3245 73.0338 28.5362 73.0596C28.748 73.084 28.9231 73.3407 29.0091 73.486C29.0377 73.486 29.8942 73.1302 30.7794 72.7703C30.0503 71.578 29.7573 70.2322 30.0566 68.9923C30.0901 68.8552 30.1283 68.7207 30.176 68.5863C29.2877 68.2685 28.2719 67.8638 27.5237 67.5786C27.4616 67.7117 27.374 67.8461 27.2498 67.9045C27.1448 67.9561 27.0476 67.9344 26.9776 67.8801C26.7038 67.6153 26.9203 67.0381 27.089 66.8724C27.2084 66.7584 27.4265 66.6647 27.5666 66.8018C27.7068 66.9403 27.6383 67.2296 27.5937 67.3885C27.5937 67.4061 29.2256 67.7769 30.3798 68.0675C30.9864 66.7312 32.1518 65.5918 33.5814 64.815C32.9844 63.8209 32.3667 62.7155 31.8843 61.8912C31.6662 61.9944 31.4147 62.0772 31.2077 62.046C31.0326 62.0202 30.945 61.9184 30.9243 61.7988C30.9052 61.2746 31.792 60.7858 32.1693 60.7355C32.4304 60.6988 32.7838 60.7681 32.7934 61.0397C32.8013 61.31 32.4017 61.5897 32.1757 61.7323C32.1757 61.7676 33.3936 63.2275 34.3631 64.4389C34.8933 64.2107 35.4489 64.0314 36.0189 63.9106C36.0491 63.3809 36.0889 62.8595 36.1144 62.433C35.9472 62.433 35.7689 62.41 35.6575 62.3326C35.5667 62.2674 35.5524 62.1832 35.5874 62.1071C35.7817 61.7934 36.4885 61.7567 36.7289 61.8328C36.8977 61.8858 37.0792 62.0256 36.9773 62.1859C36.877 62.3475 36.5347 62.3977 36.3453 62.4195C36.3325 62.4208 36.4105 63.0754 36.4933 63.8182C37.6173 63.6376 38.7795 63.6743 39.8828 63.9812C40.1503 64.0572 40.413 64.1442 40.6693 64.2474C41.1883 63.6933 41.6977 63.1555 42.1133 62.7033C41.9111 62.5811 41.7153 62.4222 41.6627 62.247C41.615 62.1017 41.685 61.989 41.8028 61.9238C42.3521 61.6875 43.2468 62.1628 43.4617 62.4317C43.6114 62.6177 43.6894 62.9219 43.406 63.0428C43.1226 63.1637 42.6578 62.9735 42.4062 62.8595C42.3871 62.8595 41.8777 63.6254 41.2727 64.519C42.0082 64.887 42.6641 65.3705 43.1847 65.9408C43.7197 65.7412 44.2466 65.5456 44.6765 65.3813C44.6001 65.255 44.5428 65.1097 44.573 64.9902C44.6001 64.8897 44.6829 64.8422 44.7768 64.834C45.1907 64.8395 45.5505 65.3623 45.5808 65.5796C45.6015 65.7303 45.5362 65.9313 45.3213 65.9286C45.1063 65.9245 44.8994 65.6882 44.7927 65.5524C44.772 65.5524 44.1654 65.8865 43.4617 66.2668C43.8009 66.6972 44.0667 67.1712 44.2403 67.6764C44.4297 68.2264 44.5029 68.794 44.4791 69.3631C44.7099 69.3916 44.928 69.4174 45.1302 69.4405C45.1445 69.2979 45.1859 69.1471 45.2862 69.0589C45.369 68.9869 45.4693 68.9828 45.5537 69.0181C45.904 69.2082 45.8864 69.8139 45.7782 70.0122C45.7034 70.1507 45.5235 70.2933 45.3436 70.1942C45.1652 70.0937 45.1334 69.799 45.1254 69.6374C45.1254 69.6319 44.8564 69.6319 44.4584 69.6374C44.3788 70.4712 44.0938 71.2982 43.6719 72.056C44.5873 72.4838 45.5059 72.9279 46.2415 73.2728C46.3513 73.0827 46.5026 72.8939 46.6936 72.8179C46.856 72.754 46.9961 72.7948 47.0932 72.8831C47.461 73.3108 47.0598 74.1433 46.7828 74.3674Z" fill="#22363B"/>
<path d="M93.3948 111.937C93.2324 111.905 93.0493 111.792 93.1193 111.634C93.191 111.477 93.4998 111.398 93.6702 111.361C93.6813 111.355 93.4775 110.585 93.2833 109.804C93.1591 109.808 93.035 109.809 92.914 109.808C92.18 109.796 91.3394 109.657 90.5943 109.373C90.4861 109.491 90.3858 109.604 90.295 109.706C90.381 109.756 90.4638 109.821 90.4877 109.895C90.5084 109.956 90.4797 110.003 90.4319 110.032C90.2027 110.135 89.8238 109.941 89.7298 109.83C89.6662 109.751 89.6311 109.624 89.7489 109.571C89.8668 109.519 90.0626 109.596 90.1708 109.642C90.1788 109.638 90.2711 109.497 90.4017 109.294C89.8986 109.08 89.4512 108.793 89.1312 108.428C88.9434 108.213 88.7889 107.988 88.6711 107.754C88.2238 107.87 87.7939 107.981 87.4309 108.078C87.4834 108.201 87.5185 108.342 87.4739 108.448C87.4373 108.538 87.3545 108.573 87.2669 108.573C86.8864 108.53 86.6221 108.015 86.6206 107.813C86.6206 107.672 86.7065 107.492 86.9039 107.515C87.0998 107.539 87.2622 107.776 87.3433 107.911C87.3497 107.917 87.8815 107.696 88.5262 107.433C88.2827 106.796 88.2667 106.115 88.4259 105.472C87.7238 105.207 86.9867 104.909 86.4152 104.689C86.3579 104.812 86.2751 104.937 86.1604 104.991C86.0633 105.037 85.9726 105.018 85.9089 104.966C85.6574 104.719 85.8611 104.184 86.0188 104.033C86.1286 103.929 86.3324 103.842 86.4614 103.971C86.5919 104.099 86.5266 104.369 86.4836 104.514C86.4948 104.529 87.5853 104.786 88.566 105.032C88.6393 104.843 88.7268 104.657 88.8287 104.48C88.4849 104.234 88.1426 103.982 87.8671 103.784C87.8019 103.854 87.7223 103.921 87.6363 103.938C87.5631 103.953 87.5105 103.926 87.4787 103.884C87.3688 103.684 87.614 103.371 87.7493 103.296C87.8433 103.246 87.9929 103.221 88.0502 103.325C88.1059 103.428 88.0072 103.592 87.9467 103.68C87.9563 103.693 88.4642 103.956 88.9848 104.232C89.4735 103.504 90.2027 102.919 91.0672 102.635C91.1627 102.603 91.2582 102.575 91.3569 102.552C91.2534 102.047 91.1611 101.456 91.0831 101.024C90.9796 101.042 90.8682 101.047 90.7902 101.012C90.7233 100.982 90.7042 100.932 90.7137 100.881C90.7854 100.67 91.2136 100.572 91.3713 100.592C91.4811 100.607 91.6132 100.674 91.575 100.782C91.5368 100.892 91.3362 100.959 91.2232 100.991C91.212 100.997 91.5336 101.854 91.7438 102.469C92.7707 102.291 93.8644 102.428 94.826 102.807C95.2368 102.206 95.7096 101.555 96.0535 101.061C95.9166 100.998 95.7812 100.913 95.7303 100.81C95.6873 100.723 95.7208 100.648 95.7876 100.599C96.1044 100.414 96.7046 100.647 96.8623 100.799C96.9737 100.903 97.0485 101.085 96.8861 101.18C96.7222 101.275 96.4165 101.19 96.2509 101.137C96.2302 101.149 95.7415 102.187 95.3211 103.029C95.6412 103.189 95.9373 103.378 96.2047 103.592C96.5423 103.428 96.875 103.269 97.1472 103.136C97.0915 103.061 97.0453 102.973 97.0549 102.898C97.0644 102.836 97.1106 102.8 97.1695 102.791C97.4274 102.772 97.6901 103.076 97.7236 103.21C97.7474 103.304 97.722 103.432 97.5898 103.441C97.4561 103.451 97.3096 103.315 97.2332 103.238C97.2284 103.232 96.8511 103.489 96.4213 103.775C96.9116 104.218 97.281 104.752 97.4625 105.349C97.5055 105.495 97.5405 105.643 97.5628 105.792C98.0786 105.837 98.5817 105.884 99.0004 105.918C99.0083 105.787 99.0402 105.645 99.1293 105.563C99.2026 105.492 99.2965 105.487 99.3761 105.516C99.7073 105.682 99.7152 106.244 99.6229 106.43C99.5592 106.561 99.3984 106.698 99.2281 106.611C99.0577 106.524 99.0179 106.252 99.0036 106.102C98.9972 106.094 98.354 106.122 97.5994 106.153C97.6201 106.607 97.5437 107.063 97.3685 107.49C97.6726 107.662 97.9703 107.832 98.2155 107.969C98.268 107.893 98.3381 107.817 98.4225 107.791C98.4925 107.769 98.5498 107.79 98.5881 107.829C98.7234 108.017 98.5228 108.353 98.4002 108.442C98.3142 108.501 98.1693 108.539 98.0977 108.443C98.0277 108.347 98.1041 108.173 98.1502 108.079C98.1439 108.07 97.7331 107.911 97.2619 107.723C97.1122 108.021 96.9084 108.299 96.6553 108.546C96.3815 108.816 96.0551 109.04 95.6969 109.221C95.7574 109.334 95.8147 109.44 95.8688 109.539C95.9612 109.498 96.0678 109.466 96.1554 109.481C96.227 109.493 96.2636 109.538 96.27 109.586C96.2716 109.806 95.8927 110.003 95.7335 110.022C95.6236 110.036 95.474 110.003 95.4756 109.889C95.4772 109.775 95.6475 109.662 95.7446 109.604C95.7478 109.603 95.6571 109.482 95.5202 109.305C94.9804 109.551 94.3755 109.702 93.7657 109.768C93.8103 110.322 93.8469 110.883 93.8835 111.33C94.0364 111.315 94.2051 111.319 94.3166 111.38C94.4105 111.432 94.4328 111.508 94.4105 111.581C94.2736 111.884 93.6256 111.985 93.3948 111.937Z" fill="#22363B"/>
<path d="M19.8196 88.4691C19.6938 88.5615 19.4789 88.6226 19.3706 88.48C19.264 88.3374 19.3706 88.078 19.4359 87.9395C19.4375 87.9273 18.5858 87.6149 17.7308 87.2904C17.6624 87.3773 17.5907 87.4642 17.5159 87.547C17.0717 88.0454 16.446 88.5452 15.7392 88.8915C15.7885 89.0354 15.8363 89.1712 15.8793 89.2934C15.978 89.2649 16.0878 89.2459 16.1722 89.2704C16.2423 89.2921 16.2709 89.3396 16.2693 89.3899C16.2327 89.6085 15.8251 89.7565 15.6643 89.7552C15.5529 89.7525 15.4112 89.7036 15.4319 89.5895C15.451 89.4768 15.6405 89.3871 15.7471 89.341C15.7471 89.3328 15.6675 89.1862 15.5529 88.977C15.053 89.197 14.5181 89.3383 13.9847 89.3437C13.6711 89.3478 13.367 89.3206 13.0757 89.2649C12.9228 89.6411 12.7748 90.0037 12.6522 90.3106C12.8002 90.3473 12.9547 90.4057 13.0295 90.498C13.0932 90.5754 13.0772 90.6542 13.0263 90.7139C12.7604 90.9502 12.1172 90.8307 11.9262 90.7112C11.7925 90.627 11.6731 90.4641 11.81 90.3405C11.9469 90.2196 12.2685 90.2468 12.442 90.2699C12.4516 90.2699 12.5566 89.7728 12.6856 89.1726C11.9389 88.9648 11.2846 88.5764 10.7672 88.0862C10.1033 88.4148 9.38686 88.7475 8.84397 89.0123C8.92676 89.1237 8.99521 89.2554 8.97929 89.3654C8.96656 89.4591 8.89491 89.5107 8.80894 89.5243C8.42685 89.5528 8.03998 89.0979 7.98903 88.8996C7.95401 88.7625 7.99222 88.571 8.18963 88.5574C8.38705 88.5438 8.60516 88.7462 8.7182 88.863C8.73889 88.8643 9.62408 88.2627 10.4344 87.7317C10.2975 87.5701 10.1749 87.4004 10.0651 87.2265C9.63044 87.3189 9.18785 87.4058 8.83919 87.4805C8.86785 87.566 8.88536 87.6611 8.85034 87.7317C8.82168 87.7901 8.76437 87.8118 8.70546 87.8078C8.45073 87.767 8.29789 87.4126 8.30745 87.2754C8.31541 87.1804 8.38068 87.0636 8.51123 87.0853C8.64178 87.107 8.74048 87.2727 8.78825 87.3664C8.80576 87.3678 9.35502 87.1722 9.92179 86.9753C9.519 86.2107 9.39323 85.362 9.63363 84.5987C9.6591 84.5146 9.68935 84.4317 9.72597 84.3502C9.18626 84.1248 8.57173 83.8396 8.1164 83.64C8.07182 83.7215 8.01132 83.8016 7.93172 83.8342C7.86485 83.8627 7.80436 83.8464 7.76296 83.8097C7.60376 83.6359 7.76296 83.2828 7.876 83.185C7.9556 83.1171 8.0957 83.0669 8.1769 83.1565C8.25809 83.2475 8.20396 83.4254 8.16894 83.5232C8.16734 83.5341 9.16875 83.8152 9.87562 84.0338C10.3118 83.2204 11.0856 82.5468 12.0106 82.1081C11.681 81.4699 11.3451 80.7623 11.0792 80.2327C10.9391 80.2897 10.7783 80.3345 10.651 80.3074C10.5427 80.2857 10.4917 80.2191 10.4854 80.1444C10.4965 79.8171 11.0697 79.5401 11.3069 79.5211C11.4709 79.5061 11.689 79.5605 11.6826 79.7302C11.6762 79.8986 11.4151 80.0602 11.2687 80.1431C11.2671 80.1648 11.9628 81.1127 12.5153 81.8976C12.856 81.7727 13.2094 81.6776 13.5708 81.6206C13.6122 81.2906 13.6599 80.9674 13.6934 80.7026C13.5899 80.6971 13.4784 80.6781 13.4132 80.6265C13.359 80.5831 13.3543 80.5301 13.3797 80.4839C13.5135 80.2938 13.9561 80.2938 14.1025 80.3495C14.206 80.3875 14.3127 80.4812 14.2426 80.5763C14.1726 80.674 13.9577 80.6944 13.8398 80.7026C13.8319 80.7039 13.8526 81.114 13.8717 81.5785C14.5786 81.5011 15.3013 81.5595 15.9764 81.7863C16.1404 81.842 16.2996 81.9044 16.454 81.9764C16.8011 81.6464 17.1418 81.3286 17.4204 81.0597C17.2994 80.9769 17.1848 80.8723 17.1593 80.761C17.1354 80.6686 17.1848 80.6007 17.2596 80.564C17.6114 80.4337 18.1495 80.7582 18.2705 80.9321C18.3565 81.0529 18.3915 81.2444 18.21 81.311C18.0285 81.3775 17.7467 81.2444 17.5939 81.1657C17.5828 81.1657 17.2325 81.626 16.817 82.1638C17.2596 82.4164 17.6464 82.7383 17.9473 83.109C18.2896 83.0004 18.6256 82.8958 18.901 82.8075C18.8596 82.726 18.8293 82.6337 18.8532 82.5603C18.8739 82.4992 18.9281 82.4721 18.987 82.4694C19.2449 82.4857 19.4455 82.8224 19.4566 82.9596C19.463 83.0547 19.4136 83.1769 19.2799 83.1687C19.1462 83.1592 19.0268 83.0058 18.9663 82.9189C18.9535 82.9189 18.5603 83.1076 18.1066 83.3222C18.2992 83.6006 18.4441 83.9048 18.53 84.2239C18.624 84.5716 18.6463 84.9287 18.6065 85.2818C18.7482 85.3063 18.8835 85.3294 19.0077 85.3497C19.0236 85.2615 19.0554 85.1691 19.1223 85.1175C19.1764 85.0754 19.2401 85.0768 19.291 85.1012C19.5012 85.2302 19.4646 85.6064 19.3882 85.7273C19.3356 85.8115 19.2162 85.8943 19.1095 85.8278C19.0029 85.7599 18.9965 85.5752 18.9981 85.4747C18.9981 85.472 18.8309 85.4625 18.5826 85.4543C18.4966 85.9717 18.2849 86.4769 17.9887 86.9359C18.5412 87.232 19.0936 87.5362 19.5378 87.7738C19.6142 87.6597 19.7177 87.5457 19.8387 87.5049C19.9422 87.471 20.0282 87.4995 20.0839 87.5579C20.2861 87.8308 20.0011 88.3374 19.8196 88.4691Z" fill="#22363B"/>
<path d="M73.3733 98.2048C73.5659 98.1247 73.7601 97.9386 73.6184 97.758C73.4752 97.5774 73.0612 97.5516 72.8351 97.5475C72.8176 97.5421 72.8192 96.5236 72.8065 95.4955C72.9625 95.4711 73.1201 95.4426 73.273 95.41C74.1916 95.2172 75.2041 94.841 76.0463 94.3046C76.2215 94.4281 76.3854 94.5449 76.5319 94.6509C76.4412 94.7351 76.3584 94.8383 76.3504 94.9347C76.3456 95.0175 76.3966 95.0691 76.4666 95.0949C76.7882 95.1696 77.2022 94.8342 77.2818 94.6699C77.3359 94.5558 77.3391 94.3888 77.1719 94.3507C77.0063 94.3127 76.785 94.4567 76.6656 94.5422C76.6545 94.5381 76.4921 94.3833 76.2597 94.1606C76.8217 93.7681 77.2881 93.301 77.5715 92.7646C77.7371 92.4495 77.8549 92.129 77.9281 91.8071C78.5283 91.8452 79.1063 91.8805 79.595 91.9144C79.5711 92.0828 79.5727 92.2675 79.6635 92.3911C79.7383 92.4943 79.8545 92.5201 79.9644 92.4984C80.4293 92.3517 80.5916 91.6415 80.5232 91.3862C80.4754 91.2096 80.3098 91.0046 80.0694 91.0792C79.8306 91.1553 79.7065 91.4934 79.6491 91.6822C79.6444 91.6931 78.9025 91.5437 78.003 91.3671C78.0969 90.5075 77.8931 89.6492 77.4776 88.8765C78.2736 88.3741 79.1015 87.8213 79.7463 87.4085C79.8593 87.5484 80.0058 87.6855 80.1682 87.7249C80.3051 87.7602 80.4117 87.7141 80.477 87.6339C80.711 87.2618 80.278 86.6399 80.0297 86.4864C79.8561 86.3818 79.5711 86.3221 79.4517 86.5149C79.3307 86.7078 79.5011 87.031 79.6046 87.2034C79.595 87.2252 78.3102 87.8105 77.1576 88.355C77.0032 88.1337 76.8312 87.9232 76.6449 87.7236C76.9952 87.3325 77.3423 86.9305 77.6241 86.6154C77.7291 86.6887 77.8517 86.7539 77.9663 86.7553C78.0619 86.7566 78.1208 86.7105 78.1462 86.6494C78.2195 86.371 77.8055 86.0355 77.6113 85.9758C77.476 85.935 77.2802 85.9405 77.2436 86.0831C77.2069 86.227 77.3852 86.4104 77.4903 86.5054C77.4824 86.5244 76.9315 86.978 76.3695 87.4492C75.5146 86.6521 74.4017 86.0912 73.222 85.9432C73.0915 85.9269 72.9609 85.9147 72.8304 85.9079C72.7938 85.2479 72.7142 84.482 72.668 83.9211C72.8033 83.9184 72.9466 83.898 73.0326 83.8342C73.1074 83.7812 73.1154 83.712 73.0851 83.6522C72.9259 83.4023 72.3543 83.3833 72.1617 83.4458C72.028 83.492 71.8847 83.606 71.9675 83.7337C72.0519 83.8627 72.3273 83.898 72.4801 83.9129C72.496 83.917 72.375 85.0713 72.3145 85.8957C70.9645 85.9187 69.6335 86.356 68.5509 87.0649C67.8345 86.4063 67.0257 85.7042 66.4271 85.165C66.5784 85.0523 66.7217 84.9138 66.7503 84.7712C66.7758 84.6517 66.7089 84.5661 66.6086 84.52C66.1485 84.3638 65.4719 84.8011 65.3238 85.0292C65.2187 85.1881 65.1837 85.4353 65.4209 85.5154C65.6582 85.5955 66.0148 85.4149 66.2058 85.3076C66.2377 85.3171 67.1961 86.5041 68.0017 87.4628C67.653 87.7426 67.3425 88.0508 67.0783 88.3849C66.6007 88.2586 66.1278 88.1405 65.7425 88.0386C65.7887 87.9313 65.8174 87.8091 65.7792 87.7168C65.7457 87.6407 65.6757 87.6081 65.5993 87.6095C65.2681 87.6475 65.0404 88.0943 65.042 88.2708C65.042 88.3944 65.1169 88.5492 65.2856 88.5289C65.456 88.5085 65.5961 88.3021 65.6661 88.1853C65.6709 88.1771 66.2297 88.408 66.8649 88.666C66.3953 89.341 66.1087 90.1001 66.0769 90.8959C66.0705 91.0888 66.0753 91.283 66.0976 91.4758C65.4639 91.6578 64.8478 91.8384 64.332 91.9823C64.2778 91.818 64.1919 91.6496 64.0518 91.5668C63.9356 91.4962 63.8177 91.5097 63.727 91.5681C63.3656 91.8574 63.5407 92.5649 63.7206 92.7768C63.8432 92.9248 64.0916 93.0593 64.2763 92.9085C64.4625 92.7591 64.4211 92.4074 64.3893 92.2132C64.3941 92.201 65.2124 92.0828 66.1708 91.9389C66.295 92.5133 66.5417 93.0701 66.9047 93.5631C66.58 93.8523 66.2631 94.1389 65.9973 94.3711C65.9065 94.2869 65.7935 94.2095 65.6789 94.1973C65.5833 94.1878 65.5181 94.2272 65.4846 94.2855C65.3748 94.5531 65.7394 94.9292 65.924 95.0094C66.0514 95.0637 66.2472 95.0773 66.3045 94.9388C66.3602 94.8002 66.2074 94.6006 66.1167 94.4947C66.123 94.4811 66.5847 94.1823 67.1165 93.8333C67.4046 94.1701 67.7517 94.4716 68.1513 94.7228C68.5859 94.9958 69.0699 95.2009 69.5794 95.3407C69.5412 95.4969 69.5046 95.6449 69.4695 95.7807C69.339 95.7509 69.1941 95.7359 69.089 95.7767C69.0031 95.8093 68.9712 95.8744 68.9792 95.9383C69.0508 96.2167 69.5921 96.3715 69.7975 96.3565C69.9408 96.347 70.1159 96.2696 70.0793 96.127C70.0395 95.9844 69.788 95.8826 69.6463 95.8337C69.6415 95.8323 69.7163 95.6585 69.8293 95.4046C70.5903 95.5825 71.4007 95.6273 72.1888 95.5634C72.3161 96.271 72.4562 96.9853 72.5597 97.5557C72.3623 97.5733 72.1522 97.6195 72.0327 97.7227C71.9324 97.8096 71.9293 97.9115 71.9802 97.9984C72.2509 98.3501 73.0994 98.3202 73.3733 98.2048Z" fill="#22363B"/>
<path d="M35.3117 120.737C35.5633 120.805 35.9215 120.781 35.9756 120.517C36.0281 120.252 35.6843 119.931 35.4868 119.762C35.4773 119.744 36.4914 118.839 37.504 117.911C37.668 118.002 37.8351 118.09 38.0039 118.173C39.0148 118.668 40.2917 119.064 41.5765 119.196C41.6099 119.432 41.6401 119.656 41.6656 119.857C41.5 119.867 41.3249 119.898 41.223 119.979C41.1355 120.049 41.1307 120.133 41.1689 120.206C41.3822 120.506 42.0843 120.505 42.3184 120.418C42.4792 120.356 42.6495 120.209 42.5381 120.053C42.4282 119.899 42.0859 119.868 41.8965 119.857C41.8901 119.846 41.8997 119.59 41.914 119.223C42.8055 119.28 43.6875 119.203 44.4724 118.928C44.9341 118.768 45.3592 118.567 45.7429 118.332C46.2412 118.801 46.7204 119.252 47.1216 119.634C46.9321 119.766 46.7491 119.933 46.7077 120.108C46.6726 120.255 46.7507 120.362 46.8701 120.422C47.4305 120.627 48.2822 120.112 48.4764 119.835C48.6102 119.643 48.6659 119.34 48.3761 119.234C48.088 119.129 47.639 119.34 47.4018 119.466C47.3875 119.473 46.8732 118.801 46.2476 117.993C47.1885 117.295 47.8603 116.381 48.2583 115.392C49.4683 115.52 50.7563 115.627 51.7417 115.726C51.7019 115.932 51.6972 116.161 51.8022 116.314C51.8898 116.444 52.0315 116.481 52.1668 116.457C52.7463 116.295 52.9804 115.426 52.9103 115.11C52.861 114.891 52.6667 114.63 52.3674 114.717C52.0681 114.801 51.8978 115.213 51.8182 115.442C51.7895 115.454 50.0589 115.046 48.4892 114.697C48.572 114.388 48.6277 114.075 48.6595 113.762C49.3616 113.667 50.0717 113.561 50.6353 113.483C50.656 113.624 50.7005 113.772 50.8008 113.855C50.8852 113.925 50.9839 113.927 51.0667 113.89C51.409 113.694 51.374 113.097 51.2609 112.901C51.1798 112.767 50.9998 112.63 50.8247 112.73C50.6496 112.832 50.6257 113.124 50.6257 113.287C50.6002 113.298 49.6562 113.303 48.6866 113.316C48.7184 111.985 48.2838 110.68 47.3779 109.694C47.2776 109.585 47.1741 109.479 47.0627 109.379C47.6868 108.763 48.3777 108.022 48.8952 107.49C49.0193 107.585 49.1658 107.67 49.3059 107.677C49.4253 107.682 49.5001 107.628 49.5336 107.553C49.6402 107.215 49.1499 106.785 48.9158 106.702C48.7503 106.645 48.5099 106.645 48.4557 106.819C48.4032 106.994 48.6134 107.226 48.7344 107.348C48.7439 107.365 47.4878 108.304 46.6137 108.997C45.3863 108.04 43.7655 107.467 42.0955 107.314C42.113 106.209 42.0891 104.996 42.0923 104.084C42.3391 104.093 42.6049 104.073 42.7721 103.967C42.9138 103.877 42.9393 103.754 42.8963 103.641C42.6416 103.168 41.6035 103.068 41.2437 103.164C40.9922 103.23 40.7152 103.425 40.8473 103.668C40.9794 103.911 41.4778 104.009 41.7532 104.051C41.7707 104.082 41.4443 105.834 41.2087 107.274C40.6196 107.271 40.0354 107.32 39.467 107.427C39.1661 106.968 38.862 106.521 38.62 106.152C38.7681 106.09 38.9145 106.001 38.9735 105.891C39.0196 105.8 38.9894 105.72 38.9193 105.666C38.585 105.459 37.9386 105.693 37.7651 105.852C37.6425 105.962 37.5549 106.155 37.7269 106.258C37.8988 106.364 38.2284 106.28 38.4083 106.228C38.4194 106.225 38.6885 106.835 38.9989 107.525C37.9084 107.787 36.8974 108.256 36.0775 108.941C35.8785 109.108 35.6906 109.285 35.5187 109.474C34.772 109.176 34.0429 108.891 33.4411 108.645C33.5573 108.461 33.648 108.247 33.605 108.071C33.5716 107.924 33.4522 107.851 33.3137 107.837C32.7039 107.833 32.1547 108.591 32.1037 108.91C32.0671 109.131 32.1531 109.43 32.4683 109.432C32.7819 109.433 33.0972 109.089 33.2612 108.894C33.2771 108.887 34.1256 109.375 35.1223 109.94C34.6606 110.542 34.3278 111.216 34.1607 111.918C33.5827 111.941 33.016 111.966 32.5479 111.982C32.5495 111.841 32.5256 111.69 32.4381 111.596C32.3632 111.518 32.2645 111.507 32.177 111.534C31.8124 111.694 31.763 112.293 31.849 112.498C31.9079 112.639 32.0703 112.793 32.2598 112.71C32.4476 112.626 32.5097 112.338 32.5352 112.179C32.5527 112.171 33.2643 112.239 34.0842 112.313C34.0046 112.823 34.0142 113.343 34.1209 113.856C34.2371 114.414 34.4647 114.947 34.78 115.442C34.5905 115.554 34.4106 115.66 34.2435 115.755C34.1575 115.634 34.0429 115.516 33.9075 115.475C33.7977 115.442 33.7053 115.476 33.6496 115.54C33.4379 115.839 33.7642 116.37 33.9633 116.506C34.1002 116.601 34.3342 116.659 34.4425 116.504C34.5491 116.348 34.4249 116.075 34.3485 115.928C34.3453 115.924 34.5857 115.822 34.9408 115.679C35.4423 116.387 36.1205 117.015 36.8863 117.53C36.2956 118.253 35.7097 118.992 35.2337 119.573C35.0395 119.446 34.8054 119.336 34.5969 119.34C34.4202 119.345 34.3167 119.433 34.2769 119.548C34.167 120.054 34.9519 120.641 35.3117 120.737Z" fill="#22363B"/>
</g>
<path d="M193.841 12.0654C193.72 13.3548 193.244 14.362 192.414 15.0869C191.583 15.8063 190.479 16.166 189.102 16.166C188.139 16.166 187.289 15.9391 186.553 15.4854C185.823 15.026 185.258 14.3758 184.86 13.5347C184.461 12.6935 184.254 11.7168 184.237 10.6045V9.47559C184.237 8.33561 184.439 7.33122 184.843 6.4624C185.247 5.59359 185.826 4.92399 186.578 4.45361C187.336 3.98324 188.211 3.74805 189.201 3.74805C190.535 3.74805 191.608 4.11051 192.422 4.83545C193.235 5.56038 193.708 6.58415 193.841 7.90674H191.75C191.65 7.03792 191.395 6.4126 190.986 6.03076C190.582 5.64339 189.987 5.44971 189.201 5.44971C188.288 5.44971 187.585 5.78451 187.093 6.4541C186.606 7.11816 186.357 8.09489 186.346 9.38428V10.4551C186.346 11.7611 186.578 12.7572 187.043 13.4434C187.513 14.1296 188.2 14.4727 189.102 14.4727C189.926 14.4727 190.546 14.2873 190.961 13.9165C191.376 13.5457 191.639 12.9287 191.75 12.0654H193.841ZM195.153 11.4263C195.153 10.5464 195.327 9.75505 195.676 9.05225C196.024 8.34391 196.514 7.8016 197.145 7.42529C197.776 7.04346 198.501 6.85254 199.32 6.85254C200.532 6.85254 201.514 7.24268 202.267 8.02295C203.025 8.80322 203.434 9.83805 203.495 11.1274L203.503 11.6006C203.503 12.486 203.332 13.2773 202.989 13.9746C202.651 14.6719 202.164 15.2114 201.528 15.5933C200.897 15.9751 200.167 16.166 199.336 16.166C198.069 16.166 197.054 15.7454 196.29 14.9043C195.532 14.0576 195.153 12.9315 195.153 11.5259V11.4263ZM197.17 11.6006C197.17 12.5247 197.361 13.2497 197.743 13.7754C198.125 14.2956 198.656 14.5557 199.336 14.5557C200.017 14.5557 200.546 14.29 200.922 13.7588C201.304 13.2275 201.495 12.45 201.495 11.4263C201.495 10.5187 201.298 9.79932 200.905 9.26807C200.518 8.73682 199.989 8.47119 199.32 8.47119C198.661 8.47119 198.138 8.73405 197.751 9.25977C197.364 9.77995 197.17 10.5602 197.17 11.6006ZM207.081 7.01855L207.139 8.05615C207.803 7.25374 208.675 6.85254 209.754 6.85254C211.624 6.85254 212.576 7.92334 212.609 10.0649V16H210.592V10.1812C210.592 9.61117 210.468 9.19059 210.219 8.91943C209.975 8.64274 209.574 8.50439 209.015 8.50439C208.202 8.50439 207.596 8.8724 207.197 9.6084V16H205.18V7.01855H207.081ZM217.2 4.83545V7.01855H218.785V8.5127H217.2V13.5264C217.2 13.8695 217.266 14.1185 217.399 14.2734C217.537 14.4229 217.781 14.4976 218.129 14.4976C218.362 14.4976 218.597 14.4699 218.835 14.4146V15.9751C218.376 16.1024 217.933 16.166 217.507 16.166C215.957 16.166 215.183 15.311 215.183 13.6011V8.5127H213.705V7.01855H215.183V4.83545H217.2ZM225.7 16C225.611 15.8285 225.534 15.549 225.467 15.1616C224.825 15.8312 224.04 16.166 223.11 16.166C222.208 16.166 221.472 15.9087 220.902 15.394C220.332 14.8794 220.047 14.243 220.047 13.4849C220.047 12.5275 220.401 11.7943 221.109 11.2852C221.823 10.7705 222.841 10.5132 224.164 10.5132H225.401V9.92383C225.401 9.45898 225.271 9.08822 225.011 8.81152C224.751 8.5293 224.355 8.38818 223.824 8.38818C223.364 8.38818 222.988 8.50439 222.695 8.73682C222.402 8.9637 222.255 9.25423 222.255 9.6084H220.238C220.238 9.11589 220.401 8.65658 220.728 8.23047C221.054 7.79883 221.497 7.46126 222.056 7.21777C222.62 6.97428 223.248 6.85254 223.94 6.85254C224.991 6.85254 225.83 7.11816 226.455 7.64941C227.08 8.17513 227.401 8.91667 227.418 9.87402V13.9248C227.418 14.7327 227.531 15.3774 227.758 15.8589V16H225.7ZM223.483 14.5474C223.882 14.5474 224.255 14.4505 224.604 14.2568C224.958 14.0632 225.224 13.8031 225.401 13.4766V11.7832H224.313C223.566 11.7832 223.005 11.9132 222.628 12.1733C222.252 12.4334 222.064 12.8014 222.064 13.2773C222.064 13.6647 222.191 13.9746 222.446 14.207C222.706 14.4339 223.052 14.5474 223.483 14.5474ZM224.604 3.25H226.903L224.604 5.76514H222.985L224.604 3.25ZM229.178 11.4429C229.178 10.0483 229.504 8.93604 230.157 8.10596C230.816 7.27035 231.687 6.85254 232.772 6.85254C233.796 6.85254 234.601 7.20947 235.188 7.92334L235.279 7.01855H237.097V15.7261C237.097 16.9048 236.729 17.8345 235.993 18.5151C235.262 19.1958 234.274 19.5361 233.029 19.5361C232.371 19.5361 231.726 19.3978 231.095 19.1211C230.47 18.8499 229.994 18.493 229.667 18.0503L230.622 16.8384C231.242 17.5744 232.006 17.9424 232.913 17.9424C233.583 17.9424 234.111 17.7598 234.499 17.3945C234.886 17.0348 235.08 16.5036 235.08 15.8008V15.1948C234.499 15.8423 233.724 16.166 232.755 16.166C231.704 16.166 230.843 15.7482 230.174 14.9126C229.51 14.077 229.178 12.9204 229.178 11.4429ZM231.187 11.6172C231.187 12.5192 231.369 13.2303 231.734 13.7505C232.105 14.2651 232.617 14.5225 233.27 14.5225C234.083 14.5225 234.687 14.1738 235.08 13.4766V9.52539C234.698 8.84473 234.1 8.50439 233.287 8.50439C232.623 8.50439 232.105 8.76725 231.734 9.29297C231.369 9.81868 231.187 10.5934 231.187 11.6172ZM241.322 16H239.305V7.01855H241.322V16ZM239.18 4.68604C239.18 4.37614 239.277 4.11882 239.471 3.91406C239.67 3.70931 239.952 3.60693 240.317 3.60693C240.683 3.60693 240.965 3.70931 241.164 3.91406C241.363 4.11882 241.463 4.37614 241.463 4.68604C241.463 4.9904 241.363 5.24495 241.164 5.44971C240.965 5.64893 240.683 5.74854 240.317 5.74854C239.952 5.74854 239.67 5.64893 239.471 5.44971C239.277 5.24495 239.18 4.9904 239.18 4.68604ZM243.148 11.4263C243.148 10.5464 243.322 9.75505 243.671 9.05225C244.02 8.34391 244.509 7.8016 245.14 7.42529C245.771 7.04346 246.496 6.85254 247.315 6.85254C248.527 6.85254 249.509 7.24268 250.262 8.02295C251.02 8.80322 251.429 9.83805 251.49 11.1274L251.499 11.6006C251.499 12.486 251.327 13.2773 250.984 13.9746C250.646 14.6719 250.159 15.2114 249.523 15.5933C248.892 15.9751 248.162 16.166 247.332 16.166C246.064 16.166 245.049 15.7454 244.285 14.9043C243.527 14.0576 243.148 12.9315 243.148 11.5259V11.4263ZM245.165 11.6006C245.165 12.5247 245.356 13.2497 245.738 13.7754C246.12 14.2956 246.651 14.5557 247.332 14.5557C248.012 14.5557 248.541 14.29 248.917 13.7588C249.299 13.2275 249.49 12.45 249.49 11.4263C249.49 10.5187 249.293 9.79932 248.9 9.26807C248.513 8.73682 247.985 8.47119 247.315 8.47119C246.656 8.47119 246.133 8.73405 245.746 9.25977C245.359 9.77995 245.165 10.5602 245.165 11.6006Z" fill="black"/>
<path d="M44.1699 144.918H40.2915V149H39.0728V139.758H44.7983V140.761H40.2915V143.922H44.1699V144.918ZM48.9243 149.127C47.9933 149.127 47.2358 148.822 46.6519 148.213C46.0679 147.599 45.7759 146.78 45.7759 145.756V145.541C45.7759 144.859 45.9049 144.252 46.1631 143.719C46.4255 143.181 46.7894 142.762 47.2549 142.462C47.7246 142.157 48.2324 142.005 48.7783 142.005C49.6712 142.005 50.3652 142.299 50.8604 142.887C51.3555 143.475 51.603 144.318 51.603 145.414V145.902H46.9502C46.9671 146.579 47.1639 147.127 47.5405 147.546C47.9214 147.961 48.4038 148.168 48.9878 148.168C49.4025 148.168 49.7537 148.084 50.0415 147.915C50.3293 147.745 50.5811 147.521 50.7969 147.242L51.5142 147.8C50.9386 148.685 50.0754 149.127 48.9243 149.127ZM48.7783 142.97C48.3044 142.97 47.9066 143.143 47.585 143.49C47.2633 143.833 47.0645 144.315 46.9883 144.938H50.4287V144.849C50.3949 144.252 50.234 143.791 49.9463 143.465C49.6585 143.135 49.2692 142.97 48.7783 142.97ZM58.7822 145.642C58.7822 146.692 58.541 147.536 58.0586 148.175C57.5762 148.81 56.9287 149.127 56.1162 149.127C55.2487 149.127 54.578 148.82 54.104 148.207L54.0469 149H52.9678V139.25H54.1421V142.887C54.616 142.299 55.2699 142.005 56.1035 142.005C56.9372 142.005 57.591 142.32 58.0649 142.951C58.5431 143.581 58.7822 144.444 58.7822 145.541V145.642ZM57.6079 145.509C57.6079 144.709 57.4535 144.091 57.1445 143.655C56.8356 143.219 56.3913 143.001 55.8115 143.001C55.0371 143.001 54.4806 143.361 54.1421 144.081V147.051C54.5018 147.771 55.0625 148.13 55.8242 148.13C56.387 148.13 56.825 147.912 57.1382 147.477C57.4513 147.041 57.6079 146.385 57.6079 145.509ZM63.5874 143.186C63.4097 143.156 63.2171 143.141 63.0098 143.141C62.2396 143.141 61.717 143.469 61.4419 144.125V149H60.2676V142.132H61.4102L61.4292 142.925C61.8143 142.312 62.3602 142.005 63.0669 142.005C63.2954 142.005 63.4689 142.035 63.5874 142.094V143.186ZM67.396 149.127C66.465 149.127 65.7075 148.822 65.1235 148.213C64.5396 147.599 64.2476 146.78 64.2476 145.756V145.541C64.2476 144.859 64.3766 144.252 64.6348 143.719C64.8971 143.181 65.2611 142.762 65.7266 142.462C66.1963 142.157 66.7041 142.005 67.25 142.005C68.1429 142.005 68.8369 142.299 69.332 142.887C69.8271 143.475 70.0747 144.318 70.0747 145.414V145.902H65.4219C65.4388 146.579 65.6356 147.127 66.0122 147.546C66.3931 147.961 66.8755 148.168 67.4595 148.168C67.8742 148.168 68.2254 148.084 68.5132 147.915C68.8009 147.745 69.0527 147.521 69.2686 147.242L69.9858 147.8C69.4103 148.685 68.547 149.127 67.396 149.127ZM67.25 142.97C66.776 142.97 66.3783 143.143 66.0566 143.49C65.735 143.833 65.5361 144.315 65.46 144.938H68.9004V144.849C68.8665 144.252 68.7057 143.791 68.418 143.465C68.1302 143.135 67.7409 142.97 67.25 142.97Z" fill="#636363"/>
<path d="M201.188 145.067C201.073 146.045 200.711 146.8 200.102 147.333C199.497 147.862 198.691 148.127 197.684 148.127C196.592 148.127 195.716 147.736 195.056 146.953C194.4 146.17 194.072 145.122 194.072 143.811V142.922C194.072 142.063 194.224 141.307 194.529 140.656C194.838 140.004 195.274 139.505 195.836 139.158C196.399 138.806 197.051 138.631 197.792 138.631C198.773 138.631 199.56 138.906 200.153 139.456C200.745 140.002 201.09 140.759 201.188 141.729H199.962C199.857 140.992 199.626 140.459 199.271 140.129C198.919 139.799 198.426 139.634 197.792 139.634C197.013 139.634 196.401 139.922 195.957 140.497C195.517 141.073 195.297 141.891 195.297 142.954V143.849C195.297 144.852 195.506 145.649 195.925 146.242C196.344 146.834 196.93 147.13 197.684 147.13C198.361 147.13 198.879 146.978 199.239 146.673C199.603 146.364 199.844 145.829 199.962 145.067H201.188ZM202.362 144.502C202.362 143.83 202.493 143.224 202.755 142.687C203.022 142.15 203.39 141.735 203.86 141.443C204.334 141.151 204.873 141.005 205.479 141.005C206.414 141.005 207.169 141.329 207.745 141.976C208.324 142.624 208.614 143.485 208.614 144.56V144.642C208.614 145.311 208.485 145.912 208.227 146.445C207.973 146.974 207.607 147.386 207.129 147.683C206.655 147.979 206.109 148.127 205.491 148.127C204.56 148.127 203.805 147.803 203.225 147.156C202.65 146.508 202.362 145.651 202.362 144.585V144.502ZM203.542 144.642C203.542 145.404 203.718 146.015 204.069 146.477C204.425 146.938 204.899 147.168 205.491 147.168C206.088 147.168 206.562 146.936 206.913 146.47C207.264 146 207.44 145.345 207.44 144.502C207.44 143.749 207.26 143.14 206.9 142.674C206.545 142.205 206.071 141.97 205.479 141.97C204.899 141.97 204.431 142.2 204.076 142.662C203.72 143.123 203.542 143.783 203.542 144.642ZM211.198 141.132L211.236 141.995C211.761 141.335 212.446 141.005 213.292 141.005C214.744 141.005 215.476 141.824 215.489 143.461V148H214.314V143.455C214.31 142.96 214.196 142.594 213.972 142.357C213.752 142.12 213.407 142.001 212.937 142.001C212.556 142.001 212.222 142.103 211.934 142.306C211.646 142.509 211.422 142.776 211.261 143.106V148H210.087V141.132H211.198ZM218.853 139.469V141.132H220.135V142.04H218.853V146.299C218.853 146.574 218.91 146.781 219.024 146.921C219.139 147.056 219.333 147.124 219.608 147.124C219.744 147.124 219.93 147.099 220.167 147.048V148C219.858 148.085 219.558 148.127 219.266 148.127C218.741 148.127 218.345 147.968 218.079 147.651C217.812 147.333 217.679 146.883 217.679 146.299V142.04H216.428V141.132H217.679V139.469H218.853ZM225.753 148C225.685 147.865 225.63 147.623 225.588 147.276C225.042 147.843 224.39 148.127 223.633 148.127C222.956 148.127 222.399 147.937 221.963 147.556C221.532 147.171 221.316 146.684 221.316 146.096C221.316 145.381 221.587 144.826 222.128 144.433C222.674 144.035 223.44 143.836 224.426 143.836H225.569V143.296C225.569 142.886 225.446 142.56 225.201 142.319C224.955 142.073 224.593 141.951 224.115 141.951C223.696 141.951 223.345 142.056 223.062 142.268C222.778 142.48 222.636 142.736 222.636 143.036H221.456C221.456 142.693 221.576 142.363 221.817 142.046C222.063 141.724 222.393 141.47 222.808 141.284C223.227 141.098 223.686 141.005 224.185 141.005C224.976 141.005 225.596 141.204 226.045 141.602C226.493 141.995 226.726 142.539 226.743 143.233V146.394C226.743 147.025 226.824 147.526 226.984 147.898V148H225.753ZM223.804 147.105C224.172 147.105 224.521 147.01 224.852 146.819C225.182 146.629 225.421 146.381 225.569 146.077V144.667H224.648C223.21 144.667 222.49 145.089 222.49 145.931C222.49 146.299 222.613 146.587 222.858 146.794C223.104 147.001 223.419 147.105 223.804 147.105ZM230.177 139.469V141.132H231.459V142.04H230.177V146.299C230.177 146.574 230.234 146.781 230.349 146.921C230.463 147.056 230.658 147.124 230.933 147.124C231.068 147.124 231.254 147.099 231.491 147.048V148C231.182 148.085 230.882 148.127 230.59 148.127C230.065 148.127 229.669 147.968 229.403 147.651C229.136 147.333 229.003 146.883 229.003 146.299V142.04H227.752V141.132H229.003V139.469H230.177ZM232.399 144.502C232.399 143.83 232.53 143.224 232.792 142.687C233.059 142.15 233.427 141.735 233.897 141.443C234.371 141.151 234.91 141.005 235.516 141.005C236.451 141.005 237.206 141.329 237.782 141.976C238.361 142.624 238.651 143.485 238.651 144.56V144.642C238.651 145.311 238.522 145.912 238.264 146.445C238.01 146.974 237.644 147.386 237.166 147.683C236.692 147.979 236.146 148.127 235.528 148.127C234.597 148.127 233.842 147.803 233.262 147.156C232.687 146.508 232.399 145.651 232.399 144.585V144.502ZM233.58 144.642C233.58 145.404 233.755 146.015 234.106 146.477C234.462 146.938 234.936 147.168 235.528 147.168C236.125 147.168 236.599 146.936 236.95 146.47C237.301 146 237.477 145.345 237.477 144.502C237.477 143.749 237.297 143.14 236.938 142.674C236.582 142.205 236.108 141.97 235.516 141.97C234.936 141.97 234.468 142.2 234.113 142.662C233.757 143.123 233.58 143.783 233.58 144.642Z" fill="#636363"/>
<path d="M368.822 130.976C398.921 130.976 423.321 110.162 423.321 84.4879C423.321 58.8133 398.921 38 368.822 38C338.722 38 314.322 58.8133 314.322 84.4879C314.322 110.162 338.722 130.976 368.822 130.976Z" fill="white"/>
<path d="M379.248 30.8509H359.283V37.8751H379.248V30.8509Z" fill="#E83D54"/>
<path d="M386.444 59.2315C386.444 59.9755 387.158 60.5853 388.031 60.5853H389.269V63.2107H388.031C387.159 63.2107 386.444 63.8205 386.444 64.5644C386.444 65.3084 387.158 65.9182 388.031 65.9182H389.269V68.5436H388.031C387.159 68.5436 386.444 69.1391 386.444 69.8974C386.444 70.6413 387.158 71.2511 388.031 71.2511H389.269V73.8635H388.031C387.159 73.8635 386.444 74.472 386.444 75.2173C386.444 75.9756 387.158 76.571 388.031 76.571H389.269V111.07C389.269 113.967 386.524 116.308 383.128 116.308H355.409C352.013 116.308 349.269 113.967 349.269 111.07V76.5697H351.077C351.949 76.5697 352.664 75.9743 352.664 75.216C352.664 74.472 351.951 73.8622 351.077 73.8622H349.269V71.2498H351.077C351.949 71.2498 352.664 70.6413 352.664 69.8961C352.664 69.1377 351.951 68.5423 351.077 68.5423H349.269V65.9169H351.077C351.949 65.9169 352.664 65.3084 352.664 64.5631C352.664 63.8179 351.951 63.2094 351.077 63.2094H349.269V60.584H351.077C351.949 60.584 352.664 59.9742 352.664 59.2302C352.664 58.4862 351.951 57.8765 351.077 57.8765H349.269V51.8399C349.269 50.1214 350.205 48.4836 351.792 47.4139L361.962 40.5787H361.977V37.8711H376.575V40.5787L386.745 47.4139C388.332 48.4836 389.269 50.1214 389.269 51.8399V57.8765H388.031C387.158 57.8778 386.444 58.4875 386.444 59.2315Z" fill="#2C4349"/>
<path d="M389.269 83.3828H349.269V103.952H389.269V83.3828Z" fill="#22353A"/>
<path d="M354.44 134.677C354.44 135.583 354.288 136.374 353.983 137.051C353.678 137.724 353.247 138.238 352.688 138.594C352.129 138.949 351.478 139.127 350.733 139.127C350.005 139.127 349.36 138.949 348.797 138.594C348.234 138.234 347.796 137.724 347.483 137.064C347.174 136.4 347.015 135.632 347.007 134.76V134.093C347.007 133.205 347.161 132.42 347.47 131.738C347.779 131.057 348.215 130.536 348.778 130.177C349.345 129.813 349.992 129.631 350.72 129.631C351.461 129.631 352.112 129.811 352.675 130.17C353.242 130.526 353.678 131.044 353.983 131.726C354.288 132.403 354.44 133.192 354.44 134.093V134.677ZM353.228 134.081C353.228 132.985 353.007 132.145 352.567 131.561C352.127 130.972 351.512 130.678 350.72 130.678C349.95 130.678 349.343 130.972 348.898 131.561C348.458 132.145 348.232 132.957 348.219 133.998V134.677C348.219 135.739 348.441 136.575 348.886 137.185C349.334 137.79 349.95 138.092 350.733 138.092C351.52 138.092 352.129 137.807 352.561 137.235C352.993 136.66 353.215 135.837 353.228 134.766V134.081ZM361.898 135.642C361.898 136.692 361.657 137.536 361.175 138.175C360.692 138.81 360.045 139.127 359.232 139.127C358.365 139.127 357.694 138.82 357.22 138.207L357.163 139H356.084V129.25H357.258V132.887C357.732 132.299 358.386 132.005 359.22 132.005C360.053 132.005 360.707 132.32 361.181 132.951C361.659 133.581 361.898 134.444 361.898 135.541V135.642ZM360.724 135.509C360.724 134.709 360.57 134.091 360.261 133.655C359.952 133.219 359.507 133.001 358.928 133.001C358.153 133.001 357.597 133.361 357.258 134.081V137.051C357.618 137.771 358.179 138.13 358.94 138.13C359.503 138.13 359.941 137.912 360.254 137.477C360.568 137.041 360.724 136.385 360.724 135.509ZM364.596 132.132V139.793C364.596 141.114 363.997 141.774 362.8 141.774C362.542 141.774 362.303 141.736 362.083 141.66V140.72C362.218 140.754 362.396 140.771 362.616 140.771C362.878 140.771 363.077 140.699 363.212 140.555C363.352 140.416 363.422 140.17 363.422 139.819V132.132H364.596ZM363.301 130.31C363.301 130.124 363.358 129.965 363.473 129.834C363.591 129.699 363.763 129.631 363.987 129.631C364.215 129.631 364.389 129.696 364.507 129.828C364.626 129.959 364.685 130.12 364.685 130.31C364.685 130.5 364.626 130.659 364.507 130.786C364.389 130.913 364.215 130.977 363.987 130.977C363.758 130.977 363.587 130.913 363.473 130.786C363.358 130.659 363.301 130.5 363.301 130.31ZM369.344 139.127C368.413 139.127 367.656 138.822 367.072 138.213C366.488 137.599 366.196 136.78 366.196 135.756V135.541C366.196 134.859 366.325 134.252 366.583 133.719C366.845 133.181 367.209 132.762 367.675 132.462C368.145 132.157 368.652 132.005 369.198 132.005C370.091 132.005 370.785 132.299 371.28 132.887C371.775 133.475 372.023 134.318 372.023 135.414V135.902H367.37C367.387 136.579 367.584 137.127 367.96 137.546C368.341 137.961 368.824 138.168 369.408 138.168C369.822 138.168 370.174 138.084 370.461 137.915C370.749 137.745 371.001 137.521 371.217 137.242L371.934 137.8C371.359 138.685 370.495 139.127 369.344 139.127ZM369.198 132.97C368.724 132.97 368.326 133.143 368.005 133.49C367.683 133.833 367.484 134.315 367.408 134.938H370.849V134.849C370.815 134.252 370.654 133.791 370.366 133.465C370.078 133.135 369.689 132.97 369.198 132.97ZM374.981 130.469V132.132H376.263V133.04H374.981V137.299C374.981 137.574 375.038 137.781 375.152 137.921C375.267 138.056 375.461 138.124 375.736 138.124C375.872 138.124 376.058 138.099 376.295 138.048V139C375.986 139.085 375.686 139.127 375.394 139.127C374.869 139.127 374.473 138.968 374.207 138.651C373.94 138.333 373.807 137.883 373.807 137.299V133.04H372.556V132.132H373.807V130.469H374.981ZM377.203 135.502C377.203 134.83 377.334 134.224 377.596 133.687C377.863 133.15 378.231 132.735 378.701 132.443C379.175 132.151 379.714 132.005 380.319 132.005C381.255 132.005 382.01 132.329 382.585 132.976C383.165 133.624 383.455 134.485 383.455 135.56V135.642C383.455 136.311 383.326 136.912 383.068 137.445C382.814 137.974 382.448 138.386 381.97 138.683C381.496 138.979 380.95 139.127 380.332 139.127C379.401 139.127 378.646 138.803 378.066 138.156C377.49 137.508 377.203 136.651 377.203 135.585V135.502ZM378.383 135.642C378.383 136.404 378.559 137.015 378.91 137.477C379.266 137.938 379.74 138.168 380.332 138.168C380.929 138.168 381.403 137.936 381.754 137.47C382.105 137 382.281 136.345 382.281 135.502C382.281 134.749 382.101 134.14 381.741 133.674C381.386 133.205 380.912 132.97 380.319 132.97C379.74 132.97 379.272 133.2 378.917 133.662C378.561 134.123 378.383 134.783 378.383 135.642ZM388.927 137.178C388.927 136.861 388.806 136.615 388.565 136.442C388.328 136.264 387.911 136.112 387.314 135.985C386.722 135.858 386.25 135.706 385.899 135.528C385.552 135.35 385.294 135.139 385.125 134.893C384.959 134.648 384.877 134.356 384.877 134.017C384.877 133.454 385.114 132.978 385.588 132.589C386.066 132.2 386.675 132.005 387.416 132.005C388.195 132.005 388.825 132.206 389.308 132.608C389.794 133.01 390.038 133.524 390.038 134.15H388.857C388.857 133.829 388.719 133.552 388.444 133.319C388.174 133.086 387.831 132.97 387.416 132.97C386.989 132.97 386.654 133.063 386.413 133.249C386.172 133.435 386.051 133.679 386.051 133.979C386.051 134.263 386.163 134.476 386.388 134.62C386.612 134.764 387.016 134.902 387.6 135.033C388.188 135.164 388.664 135.32 389.028 135.502C389.392 135.684 389.661 135.904 389.834 136.163C390.012 136.417 390.101 136.728 390.101 137.096C390.101 137.709 389.856 138.202 389.365 138.575C388.874 138.943 388.237 139.127 387.454 139.127C386.904 139.127 386.417 139.03 385.994 138.835C385.571 138.64 385.239 138.369 384.998 138.022C384.761 137.671 384.642 137.292 384.642 136.886H385.816C385.838 137.28 385.994 137.593 386.286 137.826C386.582 138.054 386.972 138.168 387.454 138.168C387.898 138.168 388.254 138.08 388.521 137.902C388.791 137.72 388.927 137.479 388.927 137.178ZM334.14 151.067C334.026 152.045 333.664 152.8 333.055 153.333C332.45 153.862 331.643 154.127 330.636 154.127C329.544 154.127 328.668 153.736 328.008 152.953C327.352 152.17 327.024 151.122 327.024 149.811V148.922C327.024 148.063 327.177 147.307 327.481 146.656C327.79 146.004 328.226 145.505 328.789 145.158C329.352 144.806 330.004 144.631 330.744 144.631C331.726 144.631 332.513 144.906 333.105 145.456C333.698 146.002 334.043 146.759 334.14 147.729H332.915C332.809 146.992 332.579 146.459 332.223 146.129C331.872 145.799 331.379 145.634 330.744 145.634C329.965 145.634 329.354 145.922 328.91 146.497C328.47 147.073 328.25 147.891 328.25 148.954V149.849C328.25 150.852 328.459 151.649 328.878 152.242C329.297 152.834 329.883 153.13 330.636 153.13C331.313 153.13 331.832 152.978 332.191 152.673C332.555 152.364 332.797 151.829 332.915 151.067H334.14ZM335.314 150.502C335.314 149.83 335.446 149.224 335.708 148.687C335.975 148.15 336.343 147.735 336.812 147.443C337.286 147.151 337.826 147.005 338.431 147.005C339.366 147.005 340.122 147.329 340.697 147.976C341.277 148.624 341.567 149.485 341.567 150.56V150.642C341.567 151.311 341.438 151.912 341.18 152.445C340.926 152.974 340.56 153.386 340.082 153.683C339.608 153.979 339.062 154.127 338.444 154.127C337.513 154.127 336.757 153.803 336.178 153.156C335.602 152.508 335.314 151.651 335.314 150.585V150.502ZM336.495 150.642C336.495 151.404 336.671 152.015 337.022 152.477C337.377 152.938 337.851 153.168 338.444 153.168C339.041 153.168 339.514 152.936 339.866 152.47C340.217 152 340.393 151.345 340.393 150.502C340.393 149.749 340.213 149.14 339.853 148.674C339.498 148.205 339.024 147.97 338.431 147.97C337.851 147.97 337.384 148.2 337.028 148.662C336.673 149.123 336.495 149.783 336.495 150.642ZM344.15 147.132L344.188 147.995C344.713 147.335 345.399 147.005 346.245 147.005C347.697 147.005 348.429 147.824 348.441 149.461V154H347.267V149.455C347.263 148.96 347.149 148.594 346.924 148.357C346.704 148.12 346.359 148.001 345.89 148.001C345.509 148.001 345.174 148.103 344.887 148.306C344.599 148.509 344.375 148.776 344.214 149.106V154H343.04V147.132H344.15ZM351.806 145.469V147.132H353.088V148.04H351.806V152.299C351.806 152.574 351.863 152.781 351.977 152.921C352.091 153.056 352.286 153.124 352.561 153.124C352.696 153.124 352.883 153.099 353.12 153.048V154C352.811 154.085 352.51 154.127 352.218 154.127C351.694 154.127 351.298 153.968 351.031 153.651C350.765 153.333 350.631 152.883 350.631 152.299V148.04H349.381V147.132H350.631V145.469H351.806ZM357.315 154.127C356.384 154.127 355.627 153.822 355.043 153.213C354.459 152.599 354.167 151.78 354.167 150.756V150.541C354.167 149.859 354.296 149.252 354.554 148.719C354.817 148.181 355.181 147.762 355.646 147.462C356.116 147.157 356.624 147.005 357.169 147.005C358.062 147.005 358.756 147.299 359.251 147.887C359.747 148.475 359.994 149.318 359.994 150.414V150.902H355.341C355.358 151.579 355.555 152.127 355.932 152.546C356.312 152.961 356.795 153.168 357.379 153.168C357.794 153.168 358.145 153.084 358.433 152.915C358.72 152.745 358.972 152.521 359.188 152.242L359.905 152.8C359.33 153.685 358.466 154.127 357.315 154.127ZM357.169 147.97C356.695 147.97 356.298 148.143 355.976 148.49C355.654 148.833 355.456 149.315 355.379 149.938H358.82V149.849C358.786 149.252 358.625 148.791 358.337 148.465C358.05 148.135 357.66 147.97 357.169 147.97ZM362.47 147.132L362.508 147.995C363.033 147.335 363.718 147.005 364.564 147.005C366.016 147.005 366.748 147.824 366.761 149.461V154H365.586V149.455C365.582 148.96 365.468 148.594 365.244 148.357C365.024 148.12 364.679 148.001 364.209 148.001C363.828 148.001 363.494 148.103 363.206 148.306C362.918 148.509 362.694 148.776 362.533 149.106V154H361.359V147.132H362.47ZM369.808 154H368.633V147.132H369.808V154ZM368.538 145.31C368.538 145.12 368.595 144.959 368.709 144.828C368.828 144.696 369.001 144.631 369.23 144.631C369.458 144.631 369.632 144.696 369.75 144.828C369.869 144.959 369.928 145.12 369.928 145.31C369.928 145.5 369.869 145.659 369.75 145.786C369.632 145.913 369.458 145.977 369.23 145.977C369.001 145.977 368.828 145.913 368.709 145.786C368.595 145.659 368.538 145.5 368.538 145.31ZM372.797 147.132L372.829 147.894C373.333 147.301 374.012 147.005 374.867 147.005C375.827 147.005 376.481 147.373 376.828 148.109C377.057 147.779 377.353 147.513 377.717 147.31C378.085 147.106 378.519 147.005 379.018 147.005C380.525 147.005 381.291 147.803 381.316 149.398V154H380.142V149.468C380.142 148.977 380.029 148.611 379.805 148.37C379.581 148.124 379.204 148.001 378.675 148.001C378.239 148.001 377.878 148.133 377.59 148.395C377.302 148.653 377.135 149.002 377.088 149.442V154H375.908V149.5C375.908 148.501 375.419 148.001 374.441 148.001C373.671 148.001 373.144 148.329 372.861 148.985V154H371.687V147.132H372.797ZM387.333 154C387.266 153.865 387.211 153.623 387.168 153.276C386.623 153.843 385.971 154.127 385.213 154.127C384.536 154.127 383.98 153.937 383.544 153.556C383.112 153.171 382.896 152.684 382.896 152.096C382.896 151.381 383.167 150.826 383.709 150.433C384.255 150.035 385.021 149.836 386.007 149.836H387.149V149.296C387.149 148.886 387.027 148.56 386.781 148.319C386.536 148.073 386.174 147.951 385.696 147.951C385.277 147.951 384.926 148.056 384.642 148.268C384.359 148.48 384.217 148.736 384.217 149.036H383.036C383.036 148.693 383.157 148.363 383.398 148.046C383.643 147.724 383.973 147.47 384.388 147.284C384.807 147.098 385.266 147.005 385.766 147.005C386.557 147.005 387.177 147.204 387.625 147.602C388.074 147.995 388.307 148.539 388.324 149.233V152.394C388.324 153.025 388.404 153.526 388.565 153.898V154H387.333ZM385.385 153.105C385.753 153.105 386.102 153.01 386.432 152.819C386.762 152.629 387.001 152.381 387.149 152.077V150.667H386.229C384.79 150.667 384.071 151.089 384.071 151.931C384.071 152.299 384.194 152.587 384.439 152.794C384.684 153.001 385 153.105 385.385 153.105ZM389.879 150.509C389.879 149.455 390.129 148.609 390.628 147.97C391.127 147.326 391.781 147.005 392.589 147.005C393.393 147.005 394.03 147.28 394.5 147.83V144.25H395.674V154H394.595L394.538 153.264C394.068 153.839 393.415 154.127 392.577 154.127C391.781 154.127 391.132 153.801 390.628 153.149C390.129 152.498 389.879 151.647 389.879 150.598V150.509ZM391.053 150.642C391.053 151.421 391.214 152.03 391.536 152.47C391.857 152.91 392.302 153.13 392.869 153.13C393.613 153.13 394.157 152.796 394.5 152.127V148.973C394.149 148.325 393.609 148.001 392.881 148.001C392.306 148.001 391.857 148.224 391.536 148.668C391.214 149.112 391.053 149.77 391.053 150.642ZM397.191 150.502C397.191 149.83 397.323 149.224 397.585 148.687C397.852 148.15 398.22 147.735 398.689 147.443C399.163 147.151 399.703 147.005 400.308 147.005C401.243 147.005 401.999 147.329 402.574 147.976C403.154 148.624 403.444 149.485 403.444 150.56V150.642C403.444 151.311 403.315 151.912 403.057 152.445C402.803 152.974 402.437 153.386 401.958 153.683C401.485 153.979 400.939 154.127 400.321 154.127C399.39 154.127 398.634 153.803 398.055 153.156C397.479 152.508 397.191 151.651 397.191 150.585V150.502ZM398.372 150.642C398.372 151.404 398.548 152.015 398.899 152.477C399.254 152.938 399.728 153.168 400.321 153.168C400.917 153.168 401.391 152.936 401.743 152.47C402.094 152 402.27 151.345 402.27 150.502C402.27 149.749 402.09 149.14 401.73 148.674C401.375 148.205 400.901 147.97 400.308 147.97C399.728 147.97 399.261 148.2 398.905 148.662C398.55 149.123 398.372 149.783 398.372 150.642ZM408.916 152.178C408.916 151.861 408.795 151.615 408.554 151.442C408.317 151.264 407.9 151.112 407.303 150.985C406.711 150.858 406.239 150.706 405.888 150.528C405.541 150.35 405.283 150.139 405.113 149.893C404.948 149.648 404.866 149.356 404.866 149.017C404.866 148.454 405.103 147.978 405.577 147.589C406.055 147.2 406.664 147.005 407.405 147.005C408.183 147.005 408.814 147.206 409.296 147.608C409.783 148.01 410.026 148.524 410.026 149.15H408.846C408.846 148.829 408.708 148.552 408.433 148.319C408.162 148.086 407.819 147.97 407.405 147.97C406.977 147.97 406.643 148.063 406.402 148.249C406.161 148.435 406.04 148.679 406.04 148.979C406.04 149.263 406.152 149.476 406.376 149.62C406.601 149.764 407.005 149.902 407.589 150.033C408.177 150.164 408.653 150.32 409.017 150.502C409.381 150.684 409.65 150.904 409.823 151.163C410.001 151.417 410.09 151.728 410.09 152.096C410.09 152.709 409.844 153.202 409.354 153.575C408.863 153.943 408.226 154.127 407.443 154.127C406.893 154.127 406.406 154.03 405.983 153.835C405.56 153.64 405.228 153.369 404.986 153.022C404.749 152.671 404.631 152.292 404.631 151.886H405.805C405.826 152.28 405.983 152.593 406.275 152.826C406.571 153.054 406.96 153.168 407.443 153.168C407.887 153.168 408.243 153.08 408.509 152.902C408.78 152.72 408.916 152.479 408.916 152.178Z" fill="#636363"/>
<defs>
<clipPath id="clip0">
<rect y="39" width="423" height="93" fill="white"/>
</clipPath>
</defs>
</svg>
