<svg width="467" height="159" viewBox="0 0 467 159" fill="none" xmlns="http://www.w3.org/2000/svg">
<g clip-path="url(#clip0)">
<path d="M213.538 105.156C211.534 101.226 207.833 98.2178 204.166 95.4015C203.647 95.0029 202.875 95.6584 203.397 96.0583C206.367 98.3318 209.383 100.689 211.415 103.662C212.413 105.123 213.213 106.702 213.6 108.367C215.123 114.921 209.777 114.569 207.212 113.352C203.262 111.478 200.531 108.083 200.554 104.223C200.569 101.913 201.945 99.7757 201.712 97.4608C201.565 95.9993 200.867 94.1181 199.32 93.2883C198.868 93.0464 198.377 92.9223 197.846 92.8321C194.917 92.3358 192.609 92.3809 192.168 89.1372C191.273 82.5608 197.13 75.5345 204.272 73.5366C204.534 73.4627 204.429 73.1293 204.157 73.1819C195.865 74.7837 189.92 81.8063 190.407 89.1372C190.564 91.4998 192.006 93.8122 194.925 94.2522C196.355 94.4677 198.198 94.1431 199.308 95.2925C200.723 96.7551 200.048 99.0375 199.621 100.641C199.19 102.265 198.849 103.736 199.047 105.406C199.465 108.939 201.813 112.188 205.39 114.026C207.837 115.284 211.908 116.538 214.028 114.176C216.144 111.817 214.746 107.524 213.538 105.156Z" fill="#22363B"/>
<path d="M297.127 95.5557C296.38 92.9662 296.494 90.4043 296.61 87.766C296.929 80.499 295.155 74.9103 286.212 72.9927C285.982 72.9438 285.849 73.2521 286.072 73.3323C289.814 74.681 293.085 76.6901 294.343 80.1356C295.395 83.0183 295.014 86.0539 294.919 89.0156C294.829 91.7943 295.068 94.3324 295.987 96.997C297.175 100.441 297.859 103.179 295.752 106.516C294.17 109.022 291.82 111.256 289.387 113.185C287.86 114.396 283.01 118.381 280.678 115.284C279.396 113.581 280.363 110.436 281.145 108.728C283.237 104.159 288.82 100.919 287.87 95.5582C287.747 94.8651 286.462 94.924 286.587 95.6246C287.479 100.661 282.021 103.923 279.973 108.222C278.863 110.55 278.058 114.119 279.808 116.413C283.822 121.673 293.712 111.267 295.714 108.805C297.658 106.414 298.993 103.75 298.664 100.792C298.465 98.9924 297.628 97.2966 297.127 95.5557Z" fill="#22363B"/>
<path d="M288.25 97.5848C286.4 99.1002 275.536 99.3233 267.542 101.937C261.702 103.844 249.378 107.999 245.474 108.039H245.407C241.503 108 229.178 103.844 223.339 101.937C215.343 99.3233 204.48 99.1014 202.63 97.5848C200.796 96.0557 200.967 72.5352 201.816 71.8822C202.664 71.2292 209.709 71.5551 218.129 69.4256C223.256 68.1321 239.84 62.5522 245.408 62.5133H245.476C251.043 62.5522 267.628 68.1321 272.754 69.4256C281.174 71.5551 288.218 71.2292 289.068 71.8822C289.914 72.5352 290.084 96.0557 288.25 97.5848Z" fill="#2C4349"/>
<path d="M207.262 74.3212C207.253 74.1094 206.841 74.0367 206.804 74.2686C205.641 81.5983 206.226 89.2625 207.127 96.5922C207.174 96.9695 207.862 96.9832 207.831 96.5922C207.256 89.1585 207.557 81.7537 207.262 74.3212Z" fill="#22363B"/>
<path d="M284.339 73.7246C284.314 73.474 283.865 73.4652 283.874 73.7246C284.11 81.2097 283.749 88.7261 284.047 96.1999C284.057 96.4618 284.477 96.448 284.512 96.1999C285.554 88.8339 285.083 81.0944 284.339 73.7246Z" fill="#22363B"/>
<path d="M280.619 76.571C274.628 75.3828 268.627 74.2611 262.681 72.8912C257.311 71.6541 251.724 69.5647 246.174 69.2038C240.763 68.8516 235.136 70.5098 229.968 71.728C223.697 73.2057 217.453 74.7361 211.235 76.3855C211.156 76.4068 211.188 76.5146 211.269 76.4983C216.938 75.3214 222.575 74.0568 228.206 72.7307C234.095 71.3433 240.578 69.2877 246.718 69.8543C252.254 70.3656 257.76 72.3798 263.143 73.6118C268.878 74.9254 274.654 76.1248 280.493 76.9834C280.787 77.0247 280.92 76.6299 280.619 76.571Z" fill="#22363B"/>
<path d="M249.46 101.378C243.306 102.14 235.998 99.208 230.131 97.7478C224.359 96.3114 218.596 94.8601 212.771 93.5829C212.622 93.5503 212.563 93.7383 212.708 93.7797C219.296 95.6434 225.961 97.2853 232.614 98.9673C237.971 100.322 243.891 102.641 249.557 101.676C249.79 101.637 249.686 101.349 249.46 101.378Z" fill="#22363B"/>
<path d="M279.585 94.2271C271.915 95.31 263.085 97.4394 255.798 99.7318C255.723 99.7556 255.753 99.8547 255.832 99.8346C263.372 97.9796 272.107 96.2487 279.7 94.583C279.974 94.5216 279.854 94.1882 279.585 94.2271Z" fill="#22363B"/>
<path d="M252.959 77.4296C246.498 76.0885 239.47 76.9909 232.971 77.7216C226.093 78.4949 219.313 79.6881 212.665 81.3777C212.595 81.3952 212.624 81.4854 212.696 81.4717C225.677 78.9888 239.564 76.3191 252.899 77.8106C253.154 77.8394 253.204 77.481 252.959 77.4296Z" fill="#22363B"/>
<path d="M280.3 81.3075C272.88 79.6142 265.068 78.7444 257.443 78.045C257.38 78.0387 257.365 78.1302 257.428 78.1402C264.984 79.3886 272.613 80.7911 280.251 81.6133C280.458 81.6346 280.493 81.3526 280.3 81.3075Z" fill="#22363B"/>
<path d="M235.304 89.3503C227.912 87.86 220.217 86.9727 212.68 86.1918C212.617 86.1855 212.603 86.2758 212.666 86.2871C220.081 87.677 227.695 89.0044 235.251 89.6837C235.474 89.7037 235.519 89.3929 235.304 89.3503Z" fill="#22363B"/>
<path d="M280.193 86.6593C267.292 88.6622 254.987 92.0726 241.742 90.8255C241.624 90.8142 241.607 90.9709 241.714 90.9972C247.604 92.4285 253.985 91.7003 259.911 90.759C266.727 89.6761 273.567 88.409 280.292 86.9676C280.529 86.9175 280.426 86.623 280.193 86.6593Z" fill="#22363B"/>
<path d="M116.251 62.6994C116.251 62.6994 87.7857 69.4449 83.9901 67.6292C80.1944 65.8135 75.3354 63.6079 68.3878 62.0514C61.4403 60.4949 50.8501 60.2999 45.6111 59.3272C40.3721 58.3546 35.1344 60.5241 39.0066 63.6709C42.8788 66.8189 55.2923 68.1804 55.2923 69.7368C55.2923 71.2933 18.2801 79.3688 18.3936 82.9675C18.507 86.5674 43.7891 81.5079 44.5873 82.1887C45.3842 82.8694 15.0913 89.2903 16.5716 92.7933C18.0519 96.2951 46.751 89.3884 47.3196 89.9722C47.8896 90.5561 24.2012 97.2689 24.7712 100.285C25.3411 103.301 51.0784 96.6851 51.647 97.172C52.2169 97.6589 32.9707 102.036 34.6779 105.247C36.3864 108.457 65.9959 100.091 71.8035 99.0204C77.6111 97.9508 86.7224 94.7398 89.4546 91.7237C92.1883 88.7077 123.925 85.6473 123.925 85.6473C123.925 85.6473 125.958 68.9674 116.251 62.6994Z" fill="#DB876C"/>
<path opacity="0.6" d="M39.6644 65.8988C37.4338 62.4531 39.5455 58.1257 43.441 56.1956C46.4849 54.6847 50.8655 54.4652 54.1199 55.8815C55.6453 53.9082 58.9913 52.8993 61.5937 53.0079C64.4681 53.1364 66.9216 54.6146 67.7786 56.8845C69.2192 56.1863 70.9934 55.9679 72.5652 56.4782C73.7762 56.8787 74.7548 57.7206 75.1977 58.7107C77.8029 58.8695 80.352 60.2369 81.5671 62.1763C83.2373 64.8304 82.4227 67.5685 80.2262 69.6516C80.9835 70.4935 81.3498 71.6378 81.1762 72.67C80.967 74.014 79.8941 74.9679 78.5409 75.3603C80.0062 78.1661 79.5907 81.6562 76.1558 83.3178C73.3333 84.684 69.9628 84.0674 67.7977 82.2319C67.702 82.177 67.6077 82.1373 67.5121 82.0824C64.5556 84.761 60.0027 85.123 57.6204 82.421C53.9026 86.2031 46.9797 86.5358 42.5348 83.3155C39.0603 80.8003 37.6989 76.1986 39.387 72.6081C38.6475 71.9823 38.176 71.0948 37.9614 70.1257C37.5787 68.3824 38.1814 66.931 39.6644 65.8988Z" fill="#E83D54"/>
<path opacity="0.6" d="M84.9873 110.461C83.5822 113.758 78.9418 115.08 75.142 113.973C72.1706 113.11 69.4342 110.723 68.6428 108.025C66.1976 108.304 63.4448 106.973 62.0055 105.417C60.4241 103.692 60.1507 101.418 61.4342 99.596C60.0414 99.178 58.8304 98.2871 58.3124 97.0856C57.9187 96.1561 58.0076 95.1018 58.527 94.2681C57.1273 92.6801 56.7091 90.4148 57.5251 88.5828C58.6363 86.07 61.2661 84.9339 64.1911 84.9771C64.4098 84.0488 65.0959 83.1695 66.0089 82.6639C67.1885 81.9972 68.5676 82.0544 69.6679 82.6021C71.017 80.1185 74.0062 78.3133 77.3249 79.3128C80.053 80.1336 81.5401 82.4292 81.3638 84.747C81.3761 84.8334 81.4007 84.9117 81.413 84.9992C85.2524 85.1289 88.202 87.5307 87.4708 90.4802C92.6223 90.4008 96.9374 94.1805 97.0071 98.6187C97.0631 102.085 94.2393 105.562 90.4259 106.694C90.3671 107.485 89.9447 108.275 89.3078 108.965C88.1624 110.204 86.6685 110.707 84.9873 110.461Z" fill="#E83D54"/>
<path d="M72.0036 100.975L50.5349 94.8484C43.5286 92.8494 39.7466 86.3771 42.0866 80.3917L44.1464 75.1256C46.4864 69.1402 54.0627 65.9093 61.069 67.9083L82.5377 74.035C89.544 76.034 93.326 82.5063 90.986 88.4917L88.9262 93.7578C86.5862 99.7432 79.0099 102.974 72.0036 100.975Z" fill="#E83D54"/>
<path d="M43.7408 57.9062L44.345 59.5234L46.238 60.0395L44.345 60.5556L43.7408 62.1728L43.1367 60.5556L41.2437 60.0395L43.1367 59.5234L43.7408 57.9062Z" fill="white"/>
<path d="M65.7462 100.326L66.3503 101.943L68.2434 102.459L66.3503 102.975L65.7462 104.592L65.1421 102.975L63.249 102.459L65.1421 101.943L65.7462 100.326Z" fill="white"/>
<path d="M85.7403 70.0778L86.3445 71.6962L88.2375 72.2111L86.3445 72.7272L85.7403 74.3444L85.1362 72.7272L83.2432 72.2111L85.1362 71.6962L85.7403 70.0778Z" fill="white"/>
<path d="M30.5465 94.8589L31.1506 96.4761L33.0437 96.9922L31.1506 97.5083L30.5465 99.1255L29.9424 97.5083L28.0493 96.9922L29.9424 96.4761L30.5465 94.8589Z" fill="white"/>
<path d="M47.0592 79.6093L47.6633 81.2277L49.5564 81.7438L47.6633 82.2587L47.0592 85.1498L46.4551 82.2587L44.562 81.7438L46.4551 81.2277L47.0592 79.6093Z" fill="white"/>
<path d="M82.0485 105.644L82.6526 107.262L84.547 107.778L82.6526 108.293L82.0485 111.184L81.4457 108.293L79.5513 107.778L81.4457 107.262L82.0485 105.644Z" fill="white"/>
<path d="M71.5309 57.9062L72.135 59.5234L74.0281 60.0395L72.135 60.5556L71.5309 63.4467L70.9267 60.5556L69.0337 60.0395L70.9267 59.5234L71.5309 57.9062Z" fill="white"/>
<path d="M147.29 109.717C147.29 109.717 155.338 102.194 151.997 90.0003C151.997 90.0003 137.534 87.665 134.573 85.9135C131.612 84.162 128.987 79.6876 124.207 76.7685C119.427 73.8493 102.116 72.0009 99.0411 70.4445C95.9657 68.888 91.6384 64.4124 89.0195 65.58C86.4007 66.7477 93.4617 76.6704 102.8 80.2703C102.8 80.2703 83.052 75.3346 80.7065 74.6924C76.6826 73.5901 65.446 67.5253 63.7374 69.0818C62.0289 70.6383 66.5094 76.2489 75.0124 80.0753C78.7848 81.773 87.9944 84.8428 87.9944 84.8428C87.9944 84.8428 75.2392 82.6056 71.8236 81.3398C68.4065 80.0753 57.7016 76.2804 55.7661 78.5188C53.8293 80.756 67.7231 87.47 70.3433 88.3446C72.9621 89.2203 83.3254 91.9444 83.3254 91.9444C83.3254 91.9444 72.2035 89.6745 69.0147 88.7019C65.8259 87.7292 56.8733 84.6781 55.5816 86.3666C53.6585 88.8793 68.1796 95.1555 74.7841 97.1008C74.7841 97.1008 61.6339 91.4236 60.3204 92.9661C58.4984 95.1064 71.1388 101.544 73.4924 102.582C75.8461 103.62 95.6623 109.068 102.115 108.419C108.571 107.772 121.629 107.642 124.818 107.383C128.007 107.124 147.29 109.717 147.29 109.717Z" fill="#2C4349"/>
<path d="M87.9374 99.7618C83.0537 98.753 78.1578 97.5783 73.2468 96.6944C73.1415 96.6757 73.0609 96.8077 73.1689 96.8509C77.6835 98.6794 82.9252 99.6789 87.8841 100.09C88.1055 100.109 88.1492 99.805 87.9374 99.7618Z" fill="#22363B"/>
<path d="M89.2899 93.1284C88.1309 92.6438 86.7846 92.499 85.538 92.2316C84.2846 91.9619 83.0395 91.6245 81.7492 91.5124C81.6535 91.5042 81.6207 91.628 81.7013 91.6642C82.8495 92.1849 84.1206 92.464 85.3699 92.7548C86.6069 93.042 87.9081 93.4378 89.1997 93.4156C89.3678 93.4121 89.4567 93.1985 89.2899 93.1284Z" fill="#22363B"/>
<path d="M95.0158 86.0221C92.6949 85.165 89.9859 84.7377 87.4764 84.5228C87.3657 84.5135 87.352 84.6571 87.4504 84.6828C89.8478 85.3063 92.3887 85.9871 94.86 86.3362C95.065 86.3642 95.2427 86.1062 95.0158 86.0221Z" fill="#22363B"/>
<path d="M347.208 61.4777C347.208 61.4777 369.068 69.2595 371.444 69.2862C373.821 69.3129 391.465 69.074 397.638 70.5871C403.81 72.1012 425.18 82.3538 430.794 87.061C436.409 91.7681 416.889 108.313 407.592 109.212C398.296 110.112 374.706 99.9535 368.356 97.9396C362.007 95.9257 357.307 89.0969 357.307 89.0969L338.721 84.7422C338.721 84.7445 333.044 67.9645 347.208 61.4777Z" fill="#2C4349"/>
<path d="M367.07 82.4686C373.62 81.3845 380.951 82.501 386.651 85.4598C392.735 88.6192 395.782 93.753 398.567 99.1326C398.684 99.3587 398.252 99.5465 398.111 99.3286C394.899 94.3571 391.472 89.3067 385.557 86.3723C379.883 83.5572 373.548 83.1375 367.141 83.3636C366.446 83.388 366.423 82.5752 367.07 82.4686Z" fill="#22363B"/>
<path d="M459.794 85.9456C459.794 85.9456 465.181 76.4339 453.611 63.7385C453.611 63.7385 435.175 68.0978 432.082 67.6097C426.591 66.7425 409.965 63.2203 403.658 63.6562C397.351 64.0921 385.385 72.7111 377.953 74.209C370.522 75.707 369.633 77.111 370.204 78.762C370.775 80.413 382.612 81.1956 393.988 77.7568C393.988 77.7568 370.604 92.5217 369.414 95.8678C368.222 99.2138 373.157 100.695 374.419 100.305C374.419 100.305 375.592 102.225 377.786 103.247C380.56 104.54 383.738 104.053 383.738 104.053C383.738 104.053 384.707 108.83 391.285 107.96C391.285 107.96 390.686 111.282 396.232 111.385C401.778 111.488 419.322 106.943 426.233 103.272C433.144 99.5987 441.877 91.5386 443.713 90.785C445.551 90.029 459.794 85.9456 459.794 85.9456Z" fill="#DB876C"/>
<path d="M391.365 107.659C398.859 104.547 406.819 102.454 414.161 98.9865C414.417 98.866 414.629 99.1825 414.389 99.3205C407.678 103.162 399.755 107.158 391.62 108.176C391.283 108.218 390.994 107.812 391.365 107.659Z" fill="#B25F48"/>
<path d="M383.755 103.732C391.191 98.9599 399.615 95.8631 407.2 91.5154C407.332 91.44 407.5 91.6209 407.373 91.7055C400.057 96.5634 392.457 100.792 383.966 104.01C383.561 104.163 383.385 103.97 383.755 103.732Z" fill="#B25F48"/>
<path d="M374.246 99.9013C377.169 96.8915 381.572 94.5982 385.213 92.2273C389.276 89.5827 393.426 87.0494 397.619 84.5567C397.836 84.4268 398.117 84.7306 397.905 84.8743C393.903 87.5792 389.907 90.2887 385.881 92.9681C382.287 95.3599 378.618 98.4671 374.532 100.219C374.286 100.323 374.075 100.078 374.246 99.9013Z" fill="#B25F48"/>
<path d="M403.118 68.3912C406.919 69.7256 408.633 72.6589 412.413 76.4293C415.231 79.2397 420.864 82.2842 418.416 84.4164C415.968 86.5485 408.134 82.8222 404.523 80.2704C400.913 77.7185 394.695 77.5516 393.99 77.758C393.284 77.9643 382.894 82.6216 375.227 81.7625C367.559 80.9034 363.811 68.077 363.811 68.077C363.811 68.077 372.346 68.586 378.112 67.1031C389.151 64.2649 396.351 66.0144 403.118 68.3912Z" fill="#2C4349"/>
<path d="M426.354 104.807C426.91 107.902 421.731 110.578 419.486 109.389C417.24 108.199 410.138 98.9842 410.623 97.1048C411.107 95.2254 414.043 93.6637 416.115 94.9286C418.188 96.1924 425.915 102.374 426.354 104.807Z" fill="#2C4349"/>
<path d="M431.969 98.1866C433.23 100.897 429.183 104.248 426.854 103.568C424.525 102.889 415.83 95.7912 415.811 93.9988C415.792 92.2064 418.075 90.2667 420.265 91.0458C422.456 91.8238 430.979 96.0567 431.969 98.1866Z" fill="#2C4349"/>
<path d="M417.303 109.11C417.071 112.021 411.728 113.551 409.97 112.08C408.213 110.608 403.955 100.999 404.843 99.3749C405.732 97.7506 408.771 96.8428 410.353 98.3524C411.936 99.8631 417.485 106.824 417.303 109.11Z" fill="#2C4349"/>
<path d="M409.148 111.921C408.32 114.516 403.165 115.07 401.889 113.467C400.614 111.865 398.806 102.52 399.954 101.191C401.102 99.8607 404.042 99.5106 405.151 101.121C406.26 102.73 409.798 109.883 409.148 111.921Z" fill="#2C4349"/>
<path d="M423.742 106.605C438.144 94.302 438.144 74.3547 423.742 62.0516C409.341 49.7485 385.991 49.7485 371.589 62.0516C357.188 74.3547 357.188 94.302 371.589 106.605C385.991 118.908 409.341 118.908 423.742 106.605Z" stroke="#E83D54" stroke-width="5" stroke-miterlimit="10"/>
<path d="M372.364 61.4174L424.483 105.943" stroke="#E83D54" stroke-width="5" stroke-miterlimit="10"/>
</g>
<path d="M193.98 11.5093V16H191.88V3.91406H196.504C197.854 3.91406 198.925 4.26546 199.716 4.96826C200.513 5.67106 200.912 6.60075 200.912 7.75732C200.912 8.94157 200.521 9.86296 199.741 10.5215C198.966 11.18 197.879 11.5093 196.479 11.5093H193.98ZM193.98 9.82422H196.504C197.251 9.82422 197.821 9.6499 198.214 9.30127C198.607 8.9471 198.803 8.43799 198.803 7.77393C198.803 7.12093 198.604 6.60075 198.206 6.21338C197.807 5.82048 197.259 5.61849 196.562 5.60742H193.98V9.82422ZM207.262 8.86133C206.996 8.81706 206.722 8.79492 206.44 8.79492C205.516 8.79492 204.893 9.14909 204.572 9.85742V16H202.555V7.01855H204.481L204.531 8.02295C205.018 7.24268 205.693 6.85254 206.556 6.85254C206.844 6.85254 207.082 6.89128 207.27 6.96875L207.262 8.86133ZM212.325 16.166C211.047 16.166 210.009 15.7648 209.212 14.9624C208.421 14.1545 208.025 13.0809 208.025 11.7417V11.4927C208.025 10.5962 208.197 9.79655 208.54 9.09375C208.889 8.38542 209.376 7.8348 210.001 7.44189C210.626 7.04899 211.324 6.85254 212.093 6.85254C213.316 6.85254 214.259 7.24268 214.923 8.02295C215.593 8.80322 215.928 9.90723 215.928 11.335V12.1484H210.059C210.12 12.89 210.366 13.4766 210.798 13.9082C211.235 14.3398 211.783 14.5557 212.441 14.5557C213.366 14.5557 214.118 14.1821 214.699 13.4351L215.787 14.4727C215.427 15.0094 214.945 15.4272 214.342 15.7261C213.745 16.0194 213.072 16.166 212.325 16.166ZM212.084 8.47119C211.531 8.47119 211.083 8.66488 210.74 9.05225C210.402 9.43962 210.186 9.97917 210.092 10.6709H213.936V10.5215C213.891 9.84635 213.711 9.33724 213.396 8.99414C213.081 8.64551 212.643 8.47119 212.084 8.47119ZM220.551 13.4434L222.452 7.01855H224.536L221.423 16H219.671L216.534 7.01855H218.625L220.551 13.4434ZM229.641 16.166C228.362 16.166 227.325 15.7648 226.528 14.9624C225.736 14.1545 225.341 13.0809 225.341 11.7417V11.4927C225.341 10.5962 225.512 9.79655 225.855 9.09375C226.204 8.38542 226.691 7.8348 227.316 7.44189C227.942 7.04899 228.639 6.85254 229.408 6.85254C230.631 6.85254 231.575 7.24268 232.239 8.02295C232.908 8.80322 233.243 9.90723 233.243 11.335V12.1484H227.375C227.435 12.89 227.682 13.4766 228.113 13.9082C228.55 14.3398 229.098 14.5557 229.757 14.5557C230.681 14.5557 231.434 14.1821 232.015 13.4351L233.102 14.4727C232.742 15.0094 232.261 15.4272 231.658 15.7261C231.06 16.0194 230.388 16.166 229.641 16.166ZM229.4 8.47119C228.847 8.47119 228.398 8.66488 228.055 9.05225C227.718 9.43962 227.502 9.97917 227.408 10.6709H231.251V10.5215C231.207 9.84635 231.027 9.33724 230.711 8.99414C230.396 8.64551 229.959 8.47119 229.4 8.47119ZM236.688 7.01855L236.746 8.05615C237.41 7.25374 238.282 6.85254 239.361 6.85254C241.231 6.85254 242.183 7.92334 242.216 10.0649V16H240.199V10.1812C240.199 9.61117 240.075 9.19059 239.826 8.91943C239.582 8.64274 239.181 8.50439 238.622 8.50439C237.809 8.50439 237.203 8.8724 236.804 9.6084V16H234.787V7.01855H236.688ZM247.969 14.5557C248.472 14.5557 248.89 14.409 249.222 14.1157C249.554 13.8224 249.731 13.46 249.753 13.0283H251.654C251.632 13.5872 251.458 14.1102 251.131 14.5972C250.805 15.0786 250.362 15.4604 249.803 15.7427C249.244 16.0249 248.641 16.166 247.994 16.166C246.737 16.166 245.741 15.7593 245.005 14.9458C244.269 14.1323 243.901 13.009 243.901 11.5757V11.3682C243.901 10.0013 244.267 8.90837 244.997 8.08936C245.728 7.26481 246.724 6.85254 247.985 6.85254C249.053 6.85254 249.922 7.1652 250.592 7.79053C251.267 8.41032 251.621 9.22656 251.654 10.2393H249.753C249.731 9.72461 249.554 9.30127 249.222 8.96924C248.896 8.63721 248.478 8.47119 247.969 8.47119C247.316 8.47119 246.812 8.70915 246.458 9.18506C246.104 9.65544 245.924 10.3721 245.918 11.335V11.6587C245.918 12.6326 246.093 13.3604 246.441 13.8418C246.796 14.3177 247.305 14.5557 247.969 14.5557ZM248.517 16.0166L248.425 16.4648C249.255 16.6143 249.67 17.0929 249.67 17.9009C249.67 18.4819 249.432 18.9357 248.957 19.2622C248.481 19.5887 247.814 19.752 246.956 19.752L246.898 18.6147C247.263 18.6147 247.543 18.5483 247.736 18.4155C247.936 18.2882 248.035 18.1084 248.035 17.876C248.035 17.627 247.936 17.4526 247.736 17.353C247.543 17.259 247.224 17.1981 246.782 17.1704L247.047 16.0166H248.517ZM252.8 11.4263C252.8 10.5464 252.974 9.75505 253.323 9.05225C253.671 8.34391 254.161 7.8016 254.792 7.42529C255.423 7.04346 256.148 6.85254 256.967 6.85254C258.179 6.85254 259.161 7.24268 259.914 8.02295C260.672 8.80322 261.081 9.83805 261.142 11.1274L261.15 11.6006C261.15 12.486 260.979 13.2773 260.636 13.9746C260.298 14.6719 259.811 15.2114 259.175 15.5933C258.544 15.9751 257.813 16.166 256.983 16.166C255.716 16.166 254.701 15.7454 253.937 14.9043C253.179 14.0576 252.8 12.9315 252.8 11.5259V11.4263ZM254.817 11.6006C254.817 12.5247 255.008 13.2497 255.39 13.7754C255.771 14.2956 256.303 14.5557 256.983 14.5557C257.664 14.5557 258.193 14.29 258.569 13.7588C258.951 13.2275 259.142 12.45 259.142 11.4263C259.142 10.5187 258.945 9.79932 258.552 9.26807C258.165 8.73682 257.636 8.47119 256.967 8.47119C256.308 8.47119 255.785 8.73405 255.398 9.25977C255.011 9.77995 254.817 10.5602 254.817 11.6006ZM259.972 3.43262C259.972 4.04134 259.795 4.54769 259.44 4.95166C259.092 5.35563 258.652 5.55762 258.121 5.55762C257.905 5.55762 257.717 5.53548 257.556 5.49121C257.401 5.44141 257.177 5.3335 256.884 5.16748C256.596 5.00146 256.391 4.90186 256.27 4.86865C256.153 4.83545 256.023 4.81885 255.879 4.81885C255.669 4.81885 255.489 4.89909 255.34 5.05957C255.196 5.21452 255.124 5.41927 255.124 5.67383L253.887 5.60742C253.887 4.9987 254.062 4.48682 254.41 4.07178C254.764 3.65674 255.204 3.44922 255.73 3.44922C256.045 3.44922 256.424 3.57373 256.867 3.82275C257.315 4.07178 257.683 4.19629 257.971 4.19629C258.181 4.19629 258.361 4.11882 258.511 3.96387C258.66 3.80339 258.735 3.5931 258.735 3.33301L259.972 3.43262ZM266.812 16.166C265.533 16.166 264.496 15.7648 263.699 14.9624C262.907 14.1545 262.512 13.0809 262.512 11.7417V11.4927C262.512 10.5962 262.683 9.79655 263.026 9.09375C263.375 8.38542 263.862 7.8348 264.487 7.44189C265.113 7.04899 265.81 6.85254 266.579 6.85254C267.802 6.85254 268.746 7.24268 269.41 8.02295C270.079 8.80322 270.414 9.90723 270.414 11.335V12.1484H264.545C264.606 12.89 264.853 13.4766 265.284 13.9082C265.721 14.3398 266.269 14.5557 266.928 14.5557C267.852 14.5557 268.604 14.1821 269.186 13.4351L270.273 14.4727C269.913 15.0094 269.432 15.4272 268.829 15.7261C268.231 16.0194 267.559 16.166 266.812 16.166ZM266.571 8.47119C266.017 8.47119 265.569 8.66488 265.226 9.05225C264.889 9.43962 264.673 9.97917 264.579 10.6709H268.422V10.5215C268.378 9.84635 268.198 9.33724 267.882 8.99414C267.567 8.64551 267.13 8.47119 266.571 8.47119ZM277.021 13.5596C277.021 13.1999 276.872 12.9259 276.573 12.7378C276.28 12.5496 275.79 12.3836 275.104 12.2397C274.418 12.0959 273.845 11.9132 273.386 11.6919C272.379 11.2049 271.875 10.4993 271.875 9.5752C271.875 8.80046 272.201 8.15299 272.854 7.63281C273.507 7.11263 274.338 6.85254 275.345 6.85254C276.418 6.85254 277.284 7.11816 277.943 7.64941C278.607 8.18066 278.939 8.86963 278.939 9.71631H276.922C276.922 9.32894 276.778 9.00798 276.49 8.75342C276.202 8.49333 275.821 8.36328 275.345 8.36328C274.902 8.36328 274.54 8.46566 274.257 8.67041C273.981 8.87516 273.842 9.14909 273.842 9.49219C273.842 9.80208 273.972 10.0428 274.232 10.2144C274.493 10.3859 275.018 10.5602 275.81 10.7373C276.601 10.9089 277.221 11.1164 277.669 11.3599C278.123 11.5978 278.458 11.8856 278.673 12.2231C278.895 12.5607 279.005 12.9702 279.005 13.4517C279.005 14.2596 278.671 14.9154 278.001 15.4189C277.331 15.917 276.454 16.166 275.37 16.166C274.634 16.166 273.978 16.0332 273.402 15.7676C272.827 15.502 272.379 15.1367 272.058 14.6719C271.737 14.207 271.576 13.7062 271.576 13.1694H273.535C273.563 13.6453 273.743 14.0133 274.075 14.2734C274.407 14.528 274.847 14.6553 275.395 14.6553C275.926 14.6553 276.33 14.5557 276.606 14.3564C276.883 14.1517 277.021 13.8861 277.021 13.5596Z" fill="black"/>
<path d="M47.7438 139.003H52.1236V140H46.5187V130.758H47.7438V139.003ZM57.5699 140C57.5022 139.865 57.4472 139.623 57.4049 139.276C56.859 139.843 56.2073 140.127 55.4498 140.127C54.7727 140.127 54.2163 139.937 53.7804 139.556C53.3487 139.171 53.1329 138.684 53.1329 138.096C53.1329 137.381 53.4038 136.826 53.9454 136.433C54.4913 136.035 55.2573 135.836 56.2433 135.836H57.3859V135.296C57.3859 134.886 57.2631 134.56 57.0177 134.319C56.7722 134.073 56.4104 133.951 55.9322 133.951C55.5133 133.951 55.1621 134.056 54.8785 134.268C54.595 134.48 54.4532 134.736 54.4532 135.036H53.2726C53.2726 134.693 53.3932 134.363 53.6344 134.046C53.8798 133.724 54.2099 133.47 54.6246 133.284C55.0436 133.098 55.5027 133.005 56.0021 133.005C56.7934 133.005 57.4134 133.204 57.8619 133.602C58.3105 133.995 58.5432 134.539 58.5602 135.233V138.394C58.5602 139.025 58.6406 139.526 58.8014 139.898V140H57.5699ZM55.6212 139.105C55.9894 139.105 56.3385 139.01 56.6686 138.819C56.9986 138.629 57.2377 138.381 57.3859 138.077V136.667H56.4654C55.0266 136.667 54.3072 137.089 54.3072 137.931C54.3072 138.299 54.43 138.587 54.6754 138.794C54.9209 139.001 55.2361 139.105 55.6212 139.105ZM62.5655 138.407L64.2667 133.132H65.4664L63.0035 140H62.1085L59.6202 133.132H60.8199L62.5655 138.407ZM70.735 140C70.6673 139.865 70.6123 139.623 70.5699 139.276C70.024 139.843 69.3723 140.127 68.6149 140.127C67.9378 140.127 67.3813 139.937 66.9454 139.556C66.5138 139.171 66.298 138.684 66.298 138.096C66.298 137.381 66.5688 136.826 67.1105 136.433C67.6564 136.035 68.4223 135.836 69.4083 135.836H70.5509V135.296C70.5509 134.886 70.4282 134.56 70.1827 134.319C69.9373 134.073 69.5755 133.951 69.0973 133.951C68.6783 133.951 68.3271 134.056 68.0436 134.268C67.76 134.48 67.6183 134.736 67.6183 135.036H66.4376C66.4376 134.693 66.5582 134.363 66.7994 134.046C67.0449 133.724 67.375 133.47 67.7897 133.284C68.2086 133.098 68.6678 133.005 69.1671 133.005C69.9584 133.005 70.5784 133.204 71.027 133.602C71.4755 133.995 71.7083 134.539 71.7252 135.233V138.394C71.7252 139.025 71.8056 139.526 71.9664 139.898V140H70.735ZM68.7862 139.105C69.1544 139.105 69.5035 139.01 69.8336 138.819C70.1637 138.629 70.4028 138.381 70.5509 138.077V136.667H69.6305C68.1917 136.667 67.4723 137.089 67.4723 137.931C67.4723 138.299 67.595 138.587 67.8404 138.794C68.0859 139.001 68.4012 139.105 68.7862 139.105ZM76.8859 134.186C76.7081 134.156 76.5156 134.141 76.3082 134.141C75.538 134.141 75.0154 134.469 74.7403 135.125V140H73.566V133.132H74.7086L74.7277 133.925C75.1127 133.312 75.6586 133.005 76.3653 133.005C76.5939 133.005 76.7674 133.035 76.8859 133.094V134.186ZM85.4361 140C85.3684 139.865 85.3134 139.623 85.2711 139.276C84.7252 139.843 84.0735 140.127 83.316 140.127C82.6389 140.127 82.0825 139.937 81.6466 139.556C81.215 139.171 80.9991 138.684 80.9991 138.096C80.9991 137.381 81.27 136.826 81.8116 136.433C82.3575 136.035 83.1235 135.836 84.1095 135.836H85.2521V135.296C85.2521 134.886 85.1293 134.56 84.8839 134.319C84.6385 134.073 84.2766 133.951 83.7985 133.951C83.3795 133.951 83.0283 134.056 82.7447 134.268C82.4612 134.48 82.3195 134.736 82.3195 135.036H81.1388C81.1388 134.693 81.2594 134.363 81.5006 134.046C81.746 133.724 82.0761 133.47 82.4908 133.284C82.9098 133.098 83.3689 133.005 83.8683 133.005C84.6596 133.005 85.2796 133.204 85.7281 133.602C86.1767 133.995 86.4095 134.539 86.4264 135.233V138.394C86.4264 139.025 86.5068 139.526 86.6676 139.898V140H85.4361ZM83.4874 139.105C83.8556 139.105 84.2047 139.01 84.5348 138.819C84.8649 138.629 85.104 138.381 85.2521 138.077V136.667H84.3317C82.8929 136.667 82.1735 137.089 82.1735 137.931C82.1735 138.299 82.2962 138.587 82.5416 138.794C82.7871 139.001 83.1023 139.105 83.4874 139.105ZM92.2662 138.178C92.2662 137.861 92.1456 137.615 91.9044 137.442C91.6674 137.264 91.2506 137.112 90.6539 136.985C90.0615 136.858 89.5896 136.706 89.2384 136.528C88.8914 136.35 88.6333 136.139 88.464 135.893C88.2989 135.648 88.2164 135.356 88.2164 135.017C88.2164 134.454 88.4534 133.978 88.9274 133.589C89.4056 133.2 90.0149 133.005 90.7555 133.005C91.5341 133.005 92.1647 133.206 92.6471 133.608C93.1337 134.01 93.3771 134.524 93.3771 135.15H92.1964C92.1964 134.829 92.0589 134.552 91.7838 134.319C91.513 134.086 91.1702 133.97 90.7555 133.97C90.3281 133.97 89.9938 134.063 89.7526 134.249C89.5113 134.435 89.3907 134.679 89.3907 134.979C89.3907 135.263 89.5029 135.476 89.7272 135.62C89.9514 135.764 90.3556 135.902 90.9396 136.033C91.5278 136.164 92.0039 136.32 92.3678 136.502C92.7317 136.684 93.0004 136.904 93.1739 137.163C93.3517 137.417 93.4405 137.728 93.4405 138.096C93.4405 138.709 93.1951 139.202 92.7042 139.575C92.2133 139.943 91.5764 140.127 90.7936 140.127C90.2434 140.127 89.7568 140.03 89.3336 139.835C88.9104 139.64 88.5782 139.369 88.337 139.022C88.1 138.671 87.9816 138.292 87.9816 137.886H89.1559C89.177 138.28 89.3336 138.593 89.6256 138.826C89.9218 139.054 90.3111 139.168 90.7936 139.168C91.2379 139.168 91.5934 139.08 91.86 138.902C92.1308 138.72 92.2662 138.479 92.2662 138.178ZM99.9532 130.758L102.975 138.299L105.996 130.758H107.577V140H106.358V136.401L106.472 132.516L103.438 140H102.505L99.4772 132.535L99.5978 136.401V140H98.379V130.758H99.9532ZM113.785 140C113.717 139.865 113.662 139.623 113.62 139.276C113.074 139.843 112.422 140.127 111.665 140.127C110.988 140.127 110.431 139.937 109.995 139.556C109.564 139.171 109.348 138.684 109.348 138.096C109.348 137.381 109.619 136.826 110.16 136.433C110.706 136.035 111.472 135.836 112.458 135.836H113.601V135.296C113.601 134.886 113.478 134.56 113.233 134.319C112.987 134.073 112.625 133.951 112.147 133.951C111.728 133.951 111.377 134.056 111.093 134.268C110.81 134.48 110.668 134.736 110.668 135.036H109.487C109.487 134.693 109.608 134.363 109.849 134.046C110.095 133.724 110.425 133.47 110.839 133.284C111.258 133.098 111.718 133.005 112.217 133.005C113.008 133.005 113.628 133.204 114.077 133.602C114.525 133.995 114.758 134.539 114.775 135.233V138.394C114.775 139.025 114.855 139.526 115.016 139.898V140H113.785ZM111.836 139.105C112.204 139.105 112.553 139.01 112.883 138.819C113.213 138.629 113.453 138.381 113.601 138.077V136.667H112.68C111.241 136.667 110.522 137.089 110.522 137.931C110.522 138.299 110.645 138.587 110.89 138.794C111.136 139.001 111.451 139.105 111.836 139.105ZM114.597 130.453C114.597 130.91 114.466 131.28 114.204 131.564C113.946 131.847 113.622 131.989 113.233 131.989C113.059 131.989 112.909 131.968 112.782 131.926C112.655 131.883 112.488 131.797 112.28 131.666C112.077 131.534 111.929 131.456 111.836 131.431C111.747 131.401 111.644 131.386 111.525 131.386C111.352 131.386 111.203 131.454 111.081 131.589C110.958 131.721 110.897 131.89 110.897 132.097L110.109 132.053C110.109 131.6 110.236 131.225 110.49 130.929C110.748 130.633 111.074 130.485 111.468 130.485C111.616 130.485 111.749 130.506 111.868 130.548C111.986 130.591 112.147 130.673 112.35 130.796C112.553 130.919 112.708 130.999 112.814 131.037C112.924 131.075 113.044 131.094 113.175 131.094C113.357 131.094 113.508 131.022 113.626 130.878C113.749 130.735 113.81 130.567 113.81 130.377L114.597 130.453ZM116.305 136.502C116.305 135.83 116.436 135.224 116.698 134.687C116.965 134.15 117.333 133.735 117.803 133.443C118.277 133.151 118.816 133.005 119.422 133.005C120.357 133.005 121.112 133.329 121.688 133.976C122.267 134.624 122.557 135.485 122.557 136.56V136.642C122.557 137.311 122.428 137.912 122.17 138.445C121.916 138.974 121.55 139.386 121.072 139.683C120.598 139.979 120.052 140.127 119.434 140.127C118.503 140.127 117.748 139.803 117.168 139.156C116.593 138.508 116.305 137.651 116.305 136.585V136.502ZM117.485 136.642C117.485 137.404 117.661 138.015 118.012 138.477C118.368 138.938 118.842 139.168 119.434 139.168C120.031 139.168 120.505 138.936 120.856 138.47C121.207 138 121.383 137.345 121.383 136.502C121.383 135.749 121.203 135.14 120.843 134.674C120.488 134.205 120.014 133.97 119.422 133.97C118.842 133.97 118.374 134.2 118.019 134.662C117.663 135.123 117.485 135.783 117.485 136.642ZM43.1735 150.918H39.295V155H38.0763V145.758H43.8019V146.761H39.295V149.922H43.1735V150.918ZM48.2325 149.186C48.0548 149.156 47.8623 149.141 47.6549 149.141C46.8847 149.141 46.3621 149.469 46.087 150.125V155H44.9127V148.132H46.0553L46.0743 148.925C46.4594 148.312 47.0053 148.005 47.712 148.005C47.9405 148.005 48.114 148.035 48.2325 148.094V149.186ZM52.0411 155.127C51.1101 155.127 50.3527 154.822 49.7687 154.213C49.1847 153.599 48.8927 152.78 48.8927 151.756V151.541C48.8927 150.859 49.0218 150.252 49.2799 149.719C49.5423 149.181 49.9062 148.762 50.3717 148.462C50.8414 148.157 51.3492 148.005 51.8951 148.005C52.788 148.005 53.482 148.299 53.9772 148.887C54.4723 149.475 54.7198 150.318 54.7198 151.414V151.902H50.067C50.0839 152.579 50.2807 153.127 50.6573 153.546C51.0382 153.961 51.5206 154.168 52.1046 154.168C52.5193 154.168 52.8706 154.084 53.1583 153.915C53.4461 153.745 53.6979 153.521 53.9137 153.242L54.631 153.8C54.0555 154.685 53.1922 155.127 52.0411 155.127ZM51.8951 148.97C51.4212 148.97 51.0234 149.143 50.7018 149.49C50.3802 149.833 50.1813 150.315 50.1051 150.938H53.5455V150.849C53.5117 150.252 53.3509 149.791 53.0631 149.465C52.7753 149.135 52.386 148.97 51.8951 148.97ZM55.7989 151.509C55.7989 150.43 56.0465 149.577 56.5416 148.951C57.0367 148.32 57.7011 148.005 58.5348 148.005C59.3473 148.005 59.9884 148.278 60.4581 148.824L60.5089 148.132H61.588V157.641H60.4137V154.365C59.9397 154.873 59.3092 155.127 58.5221 155.127C57.6927 155.127 57.0304 154.805 56.5353 154.162C56.0444 153.515 55.7989 152.658 55.7989 151.591V151.509ZM56.9733 151.642C56.9733 152.429 57.1383 153.047 57.4684 153.496C57.8027 153.944 58.2513 154.168 58.8141 154.168C59.5123 154.168 60.0455 153.86 60.4137 153.242V149.877C60.0413 149.272 59.5123 148.97 58.8268 148.97C58.2597 148.97 57.809 149.196 57.4747 149.649C57.1404 150.097 56.9733 150.762 56.9733 151.642ZM67.7135 154.321C67.2565 154.858 66.5857 155.127 65.7013 155.127C64.9692 155.127 64.4106 154.915 64.0255 154.492C63.6446 154.065 63.4521 153.434 63.4479 152.601V148.132H64.6222V152.569C64.6222 153.61 65.0454 154.13 65.8917 154.13C66.7889 154.13 67.3855 153.796 67.6818 153.127V148.132H68.8561V155H67.7389L67.7135 154.321ZM73.4962 155.127C72.5652 155.127 71.8077 154.822 71.2237 154.213C70.6398 153.599 70.3478 152.78 70.3478 151.756V151.541C70.3478 150.859 70.4768 150.252 70.735 149.719C70.9973 149.181 71.3613 148.762 71.8268 148.462C72.2965 148.157 72.8043 148.005 73.3502 148.005C74.2431 148.005 74.9371 148.299 75.4322 148.887C75.9274 149.475 76.1749 150.318 76.1749 151.414V151.902H71.5221C71.539 152.579 71.7358 153.127 72.1124 153.546C72.4933 153.961 72.9757 154.168 73.5597 154.168C73.9744 154.168 74.3256 154.084 74.6134 153.915C74.9012 153.745 75.1529 153.521 75.3688 153.242L76.0861 153.8C75.5105 154.685 74.6472 155.127 73.4962 155.127ZM73.3502 148.97C72.8763 148.97 72.4785 149.143 72.1569 149.49C71.8352 149.833 71.6363 150.315 71.5602 150.938H75.0006V150.849C74.9667 150.252 74.8059 149.791 74.5182 149.465C74.2304 149.135 73.8411 148.97 73.3502 148.97ZM78.6505 148.132L78.6886 148.995C79.2133 148.335 79.8989 148.005 80.7452 148.005C82.1967 148.005 82.9288 148.824 82.9415 150.461V155H81.7672V150.455C81.763 149.96 81.6487 149.594 81.4244 149.357C81.2044 149.12 80.8595 149.001 80.3898 149.001C80.0089 149.001 79.6746 149.103 79.3868 149.306C79.0991 149.509 78.8748 149.776 78.714 150.106V155H77.5397V148.132H78.6505ZM86.3058 146.469V148.132H87.588V149.04H86.3058V153.299C86.3058 153.574 86.3629 153.781 86.4772 153.921C86.5914 154.056 86.7861 154.124 87.0611 154.124C87.1966 154.124 87.3828 154.099 87.6197 154.048V155C87.3108 155.085 87.0104 155.127 86.7184 155.127C86.1936 155.127 85.798 154.968 85.5314 154.651C85.2648 154.333 85.1315 153.883 85.1315 153.299V149.04H83.881V148.132H85.1315V146.469H86.3058ZM91.8155 155.127C90.8846 155.127 90.1271 154.822 89.5431 154.213C88.9591 153.599 88.6671 152.78 88.6671 151.756V151.541C88.6671 150.859 88.7962 150.252 89.0543 149.719C89.3167 149.181 89.6806 148.762 90.1461 148.462C90.6158 148.157 91.1236 148.005 91.6695 148.005C92.5625 148.005 93.2565 148.299 93.7516 148.887C94.2467 149.475 94.4943 150.318 94.4943 151.414V151.902H89.8414C89.8584 152.579 90.0551 153.127 90.4318 153.546C90.8126 153.961 91.295 154.168 91.879 154.168C92.2937 154.168 92.645 154.084 92.9327 153.915C93.2205 153.745 93.4723 153.521 93.6881 153.242L94.4054 153.8C93.8299 154.685 92.9666 155.127 91.8155 155.127ZM91.6695 148.97C91.1956 148.97 90.7978 149.143 90.4762 149.49C90.1546 149.833 89.9557 150.315 89.8795 150.938H93.3199V150.849C93.2861 150.252 93.1253 149.791 92.8375 149.465C92.5498 149.135 92.1604 148.97 91.6695 148.97ZM96.9635 148.132L96.9952 148.894C97.4988 148.301 98.178 148.005 99.0328 148.005C99.9934 148.005 100.647 148.373 100.994 149.109C101.223 148.779 101.519 148.513 101.883 148.31C102.251 148.106 102.685 148.005 103.184 148.005C104.691 148.005 105.457 148.803 105.482 150.398V155H104.308V150.468C104.308 149.977 104.196 149.611 103.971 149.37C103.747 149.124 103.37 149.001 102.841 149.001C102.406 149.001 102.044 149.133 101.756 149.395C101.468 149.653 101.301 150.002 101.255 150.442V155H100.074V150.5C100.074 149.501 99.5851 149.001 98.6075 149.001C97.8374 149.001 97.3105 149.329 97.027 149.985V155H95.8527V148.132H96.9635ZM110.109 155.127C109.178 155.127 108.421 154.822 107.837 154.213C107.253 153.599 106.961 152.78 106.961 151.756V151.541C106.961 150.859 107.09 150.252 107.348 149.719C107.611 149.181 107.975 148.762 108.44 148.462C108.91 148.157 109.418 148.005 109.963 148.005C110.856 148.005 111.55 148.299 112.046 148.887C112.541 149.475 112.788 150.318 112.788 151.414V151.902H108.135C108.152 152.579 108.349 153.127 108.726 153.546C109.107 153.961 109.589 154.168 110.173 154.168C110.588 154.168 110.939 154.084 111.227 153.915C111.514 153.745 111.766 153.521 111.982 153.242L112.699 153.8C112.124 154.685 111.261 155.127 110.109 155.127ZM109.963 148.97C109.49 148.97 109.092 149.143 108.77 149.49C108.449 149.833 108.25 150.315 108.173 150.938H111.614V150.849C111.58 150.252 111.419 149.791 111.131 149.465C110.844 149.135 110.454 148.97 109.963 148.97ZM115.264 148.132L115.302 148.995C115.827 148.335 116.512 148.005 117.359 148.005C118.81 148.005 119.542 148.824 119.555 150.461V155H118.38V150.455C118.376 149.96 118.262 149.594 118.038 149.357C117.818 149.12 117.473 149.001 117.003 149.001C116.622 149.001 116.288 149.103 116 149.306C115.712 149.509 115.488 149.776 115.327 150.106V155H114.153V148.132H115.264ZM122.919 146.469V148.132H124.201V149.04H122.919V153.299C122.919 153.574 122.976 153.781 123.09 153.921C123.205 154.056 123.399 154.124 123.674 154.124C123.81 154.124 123.996 154.099 124.233 154.048V155C123.924 155.085 123.624 155.127 123.332 155.127C122.807 155.127 122.411 154.968 122.145 154.651C121.878 154.333 121.745 153.883 121.745 153.299V149.04H120.494V148.132H121.745V146.469H122.919ZM128.429 155.127C127.498 155.127 126.74 154.822 126.156 154.213C125.572 153.599 125.28 152.78 125.28 151.756V151.541C125.28 150.859 125.409 150.252 125.668 149.719C125.93 149.181 126.294 148.762 126.759 148.462C127.229 148.157 127.737 148.005 128.283 148.005C129.176 148.005 129.87 148.299 130.365 148.887C130.86 149.475 131.108 150.318 131.108 151.414V151.902H126.455C126.472 152.579 126.668 153.127 127.045 153.546C127.426 153.961 127.908 154.168 128.492 154.168C128.907 154.168 129.258 154.084 129.546 153.915C129.834 153.745 130.086 153.521 130.301 153.242L131.019 153.8C130.443 154.685 129.58 155.127 128.429 155.127ZM128.283 148.97C127.809 148.97 127.411 149.143 127.089 149.49C126.768 149.833 126.569 150.315 126.493 150.938H129.933V150.849C129.899 150.252 129.739 149.791 129.451 149.465C129.163 149.135 128.774 148.97 128.283 148.97Z" fill="#636363"/>
<path d="M387.182 134.51C387.182 135.415 387.029 136.206 386.725 136.884C386.42 137.556 385.988 138.071 385.43 138.426C384.871 138.781 384.219 138.959 383.475 138.959C382.747 138.959 382.101 138.781 381.538 138.426C380.976 138.066 380.538 137.556 380.225 136.896C379.916 136.232 379.757 135.464 379.748 134.592V133.926C379.748 133.037 379.903 132.252 380.212 131.571C380.521 130.889 380.957 130.369 381.519 130.009C382.087 129.645 382.734 129.463 383.462 129.463C384.202 129.463 384.854 129.643 385.417 130.003C385.984 130.358 386.42 130.877 386.725 131.558C387.029 132.235 387.182 133.024 387.182 133.926V134.51ZM385.969 133.913C385.969 132.817 385.749 131.977 385.309 131.393C384.869 130.805 384.253 130.51 383.462 130.51C382.692 130.51 382.084 130.805 381.64 131.393C381.2 131.977 380.974 132.789 380.961 133.83V134.51C380.961 135.572 381.183 136.407 381.627 137.017C382.076 137.622 382.692 137.925 383.475 137.925C384.262 137.925 384.871 137.639 385.303 137.068C385.734 136.492 385.956 135.669 385.969 134.598V133.913ZM394.64 135.474C394.64 136.524 394.399 137.368 393.916 138.007C393.434 138.642 392.787 138.959 391.974 138.959C391.107 138.959 390.436 138.652 389.962 138.039L389.905 138.832H388.826V129.082H390V132.719C390.474 132.131 391.128 131.837 391.961 131.837C392.795 131.837 393.449 132.152 393.923 132.783C394.401 133.413 394.64 134.277 394.64 135.373V135.474ZM393.466 135.341C393.466 134.541 393.311 133.923 393.002 133.488C392.693 133.052 392.249 132.834 391.669 132.834C390.895 132.834 390.338 133.193 390 133.913V136.884C390.36 137.603 390.92 137.963 391.682 137.963C392.245 137.963 392.683 137.745 392.996 137.309C393.309 136.873 393.466 136.217 393.466 135.341ZM397.338 131.964V139.626C397.338 140.946 396.739 141.606 395.541 141.606C395.283 141.606 395.044 141.568 394.824 141.492V140.552C394.96 140.586 395.137 140.603 395.357 140.603C395.62 140.603 395.819 140.531 395.954 140.387C396.094 140.248 396.163 140.002 396.163 139.651V131.964H397.338ZM396.043 130.142C396.043 129.956 396.1 129.797 396.214 129.666C396.333 129.531 396.504 129.463 396.728 129.463C396.957 129.463 397.13 129.529 397.249 129.66C397.367 129.791 397.427 129.952 397.427 130.142C397.427 130.333 397.367 130.491 397.249 130.618C397.13 130.745 396.957 130.809 396.728 130.809C396.5 130.809 396.329 130.745 396.214 130.618C396.1 130.491 396.043 130.333 396.043 130.142ZM402.086 138.959C401.155 138.959 400.397 138.655 399.813 138.045C399.229 137.432 398.937 136.613 398.937 135.589V135.373C398.937 134.691 399.066 134.084 399.325 133.551C399.587 133.014 399.951 132.595 400.416 132.294C400.886 131.99 401.394 131.837 401.94 131.837C402.833 131.837 403.527 132.131 404.022 132.719C404.517 133.308 404.765 134.15 404.765 135.246V135.735H400.112C400.129 136.412 400.325 136.96 400.702 137.379C401.083 137.793 401.565 138.001 402.149 138.001C402.564 138.001 402.915 137.916 403.203 137.747C403.491 137.578 403.743 137.353 403.958 137.074L404.676 137.633C404.1 138.517 403.237 138.959 402.086 138.959ZM401.94 132.802C401.466 132.802 401.068 132.976 400.747 133.323C400.425 133.665 400.226 134.148 400.15 134.77H403.59V134.681C403.556 134.084 403.396 133.623 403.108 133.297C402.82 132.967 402.431 132.802 401.94 132.802ZM407.723 130.301V131.964H409.005V132.872H407.723V137.131C407.723 137.406 407.78 137.614 407.894 137.753C408.008 137.889 408.203 137.956 408.478 137.956C408.613 137.956 408.8 137.931 409.037 137.88V138.832C408.728 138.917 408.427 138.959 408.135 138.959C407.61 138.959 407.215 138.801 406.948 138.483C406.682 138.166 406.548 137.715 406.548 137.131V132.872H405.298V131.964H406.548V130.301H407.723ZM409.944 135.335C409.944 134.662 410.075 134.057 410.338 133.519C410.604 132.982 410.973 132.567 411.442 132.275C411.916 131.983 412.456 131.837 413.061 131.837C413.996 131.837 414.752 132.161 415.327 132.808C415.907 133.456 416.197 134.317 416.197 135.392V135.474C416.197 136.143 416.068 136.744 415.809 137.277C415.556 137.806 415.19 138.219 414.711 138.515C414.237 138.811 413.691 138.959 413.074 138.959C412.143 138.959 411.387 138.635 410.808 137.988C410.232 137.341 409.944 136.484 409.944 135.417V135.335ZM411.125 135.474C411.125 136.236 411.301 136.848 411.652 137.309C412.007 137.77 412.481 138.001 413.074 138.001C413.67 138.001 414.144 137.768 414.496 137.302C414.847 136.833 415.022 136.177 415.022 135.335C415.022 134.581 414.843 133.972 414.483 133.507C414.127 133.037 413.653 132.802 413.061 132.802C412.481 132.802 412.014 133.033 411.658 133.494C411.303 133.955 411.125 134.615 411.125 135.474ZM421.668 137.01C421.668 136.693 421.548 136.448 421.307 136.274C421.07 136.096 420.653 135.944 420.056 135.817C419.464 135.69 418.992 135.538 418.641 135.36C418.294 135.182 418.035 134.971 417.866 134.725C417.701 134.48 417.619 134.188 417.619 133.849C417.619 133.287 417.856 132.81 418.33 132.421C418.808 132.032 419.417 131.837 420.158 131.837C420.936 131.837 421.567 132.038 422.049 132.44C422.536 132.842 422.779 133.356 422.779 133.983H421.599C421.599 133.661 421.461 133.384 421.186 133.151C420.915 132.918 420.572 132.802 420.158 132.802C419.73 132.802 419.396 132.895 419.155 133.081C418.913 133.267 418.793 133.511 418.793 133.811C418.793 134.095 418.905 134.309 419.129 134.452C419.354 134.596 419.758 134.734 420.342 134.865C420.93 134.996 421.406 135.153 421.77 135.335C422.134 135.517 422.403 135.737 422.576 135.995C422.754 136.249 422.843 136.56 422.843 136.928C422.843 137.542 422.597 138.035 422.106 138.407C421.615 138.775 420.979 138.959 420.196 138.959C419.646 138.959 419.159 138.862 418.736 138.667C418.313 138.473 417.98 138.202 417.739 137.855C417.502 137.503 417.384 137.125 417.384 136.719H418.558C418.579 137.112 418.736 137.425 419.028 137.658C419.324 137.886 419.713 138.001 420.196 138.001C420.64 138.001 420.996 137.912 421.262 137.734C421.533 137.552 421.668 137.311 421.668 137.01ZM366.882 150.9C366.768 151.877 366.406 152.633 365.796 153.166C365.191 153.695 364.385 153.959 363.378 153.959C362.286 153.959 361.41 153.568 360.75 152.785C360.094 152.002 359.766 150.955 359.766 149.643V148.754C359.766 147.895 359.918 147.14 360.223 146.488C360.532 145.836 360.968 145.337 361.531 144.99C362.094 144.639 362.745 144.463 363.486 144.463C364.468 144.463 365.255 144.738 365.847 145.288C366.44 145.834 366.784 146.592 366.882 147.561H365.657C365.551 146.824 365.32 146.291 364.965 145.961C364.614 145.631 364.121 145.466 363.486 145.466C362.707 145.466 362.096 145.754 361.651 146.329C361.211 146.905 360.991 147.724 360.991 148.786V149.681C360.991 150.684 361.201 151.482 361.62 152.074C362.038 152.666 362.625 152.963 363.378 152.963C364.055 152.963 364.573 152.81 364.933 152.506C365.297 152.197 365.538 151.661 365.657 150.9H366.882ZM368.056 150.335C368.056 149.662 368.187 149.057 368.45 148.519C368.716 147.982 369.084 147.567 369.554 147.275C370.028 146.983 370.568 146.837 371.173 146.837C372.108 146.837 372.863 147.161 373.439 147.808C374.019 148.456 374.309 149.317 374.309 150.392V150.474C374.309 151.143 374.179 151.744 373.921 152.277C373.667 152.806 373.301 153.219 372.823 153.515C372.349 153.811 371.803 153.959 371.185 153.959C370.254 153.959 369.499 153.635 368.919 152.988C368.344 152.341 368.056 151.484 368.056 150.417V150.335ZM369.237 150.474C369.237 151.236 369.412 151.848 369.764 152.309C370.119 152.77 370.593 153.001 371.185 153.001C371.782 153.001 372.256 152.768 372.607 152.302C372.959 151.833 373.134 151.177 373.134 150.335C373.134 149.581 372.954 148.972 372.595 148.507C372.239 148.037 371.765 147.802 371.173 147.802C370.593 147.802 370.125 148.033 369.77 148.494C369.414 148.955 369.237 149.615 369.237 150.474ZM376.892 146.964L376.93 147.827C377.455 147.167 378.14 146.837 378.987 146.837C380.438 146.837 381.17 147.656 381.183 149.294V153.832H380.009V149.287C380.004 148.792 379.89 148.426 379.666 148.189C379.446 147.952 379.101 147.834 378.631 147.834C378.25 147.834 377.916 147.935 377.628 148.138C377.341 148.342 377.116 148.608 376.955 148.938V153.832H375.781V146.964H376.892ZM384.547 145.301V146.964H385.83V147.872H384.547V152.131C384.547 152.406 384.604 152.614 384.719 152.753C384.833 152.889 385.028 152.956 385.303 152.956C385.438 152.956 385.624 152.931 385.861 152.88V153.832C385.552 153.917 385.252 153.959 384.96 153.959C384.435 153.959 384.039 153.801 383.773 153.483C383.506 153.166 383.373 152.715 383.373 152.131V147.872H382.122V146.964H383.373V145.301H384.547ZM390.057 153.959C389.126 153.959 388.369 153.655 387.785 153.045C387.201 152.432 386.909 151.613 386.909 150.589V150.373C386.909 149.691 387.038 149.084 387.296 148.551C387.558 148.014 387.922 147.595 388.388 147.294C388.857 146.99 389.365 146.837 389.911 146.837C390.804 146.837 391.498 147.131 391.993 147.719C392.488 148.308 392.736 149.15 392.736 150.246V150.735H388.083C388.1 151.412 388.297 151.96 388.673 152.379C389.054 152.793 389.537 153.001 390.121 153.001C390.535 153.001 390.886 152.916 391.174 152.747C391.462 152.578 391.714 152.353 391.93 152.074L392.647 152.633C392.071 153.517 391.208 153.959 390.057 153.959ZM389.911 147.802C389.437 147.802 389.039 147.976 388.718 148.323C388.396 148.665 388.197 149.148 388.121 149.77H391.561V149.681C391.528 149.084 391.367 148.623 391.079 148.297C390.791 147.967 390.402 147.802 389.911 147.802ZM395.211 146.964L395.249 147.827C395.774 147.167 396.46 146.837 397.306 146.837C398.758 146.837 399.49 147.656 399.502 149.294V153.832H398.328V149.287C398.324 148.792 398.21 148.426 397.985 148.189C397.765 147.952 397.42 147.834 396.951 147.834C396.57 147.834 396.235 147.935 395.948 148.138C395.66 148.342 395.436 148.608 395.275 148.938V153.832H394.101V146.964H395.211ZM402.549 153.832H401.375V146.964H402.549V153.832ZM401.28 145.142C401.28 144.952 401.337 144.791 401.451 144.66C401.57 144.529 401.743 144.463 401.972 144.463C402.2 144.463 402.374 144.529 402.492 144.66C402.611 144.791 402.67 144.952 402.67 145.142C402.67 145.333 402.611 145.491 402.492 145.618C402.374 145.745 402.2 145.809 401.972 145.809C401.743 145.809 401.57 145.745 401.451 145.618C401.337 145.491 401.28 145.333 401.28 145.142ZM405.539 146.964L405.571 147.726C406.074 147.133 406.754 146.837 407.608 146.837C408.569 146.837 409.223 147.205 409.57 147.942C409.798 147.612 410.094 147.345 410.458 147.142C410.827 146.939 411.26 146.837 411.76 146.837C413.266 146.837 414.032 147.635 414.058 149.23V153.832H412.883V149.3C412.883 148.809 412.771 148.443 412.547 148.202C412.323 147.956 411.946 147.834 411.417 147.834C410.981 147.834 410.619 147.965 410.331 148.227C410.044 148.485 409.877 148.835 409.83 149.275V153.832H408.649V149.332C408.649 148.333 408.161 147.834 407.183 147.834C406.413 147.834 405.886 148.162 405.602 148.818V153.832H404.428V146.964H405.539ZM420.075 153.832C420.007 153.697 419.952 153.456 419.91 153.109C419.364 153.676 418.712 153.959 417.955 153.959C417.278 153.959 416.721 153.769 416.286 153.388C415.854 153.003 415.638 152.516 415.638 151.928C415.638 151.213 415.909 150.658 416.451 150.265C416.997 149.867 417.762 149.668 418.748 149.668H419.891V149.129C419.891 148.718 419.768 148.392 419.523 148.151C419.277 147.906 418.916 147.783 418.437 147.783C418.018 147.783 417.667 147.889 417.384 148.1C417.1 148.312 416.958 148.568 416.958 148.868H415.778C415.778 148.526 415.898 148.196 416.14 147.878C416.385 147.557 416.715 147.303 417.13 147.116C417.549 146.93 418.008 146.837 418.507 146.837C419.299 146.837 419.919 147.036 420.367 147.434C420.816 147.827 421.048 148.371 421.065 149.065V152.226C421.065 152.857 421.146 153.358 421.307 153.731V153.832H420.075ZM418.126 152.937C418.495 152.937 418.844 152.842 419.174 152.652C419.504 152.461 419.743 152.214 419.891 151.909V150.5H418.971C417.532 150.5 416.812 150.921 416.812 151.763C416.812 152.131 416.935 152.419 417.181 152.626C417.426 152.834 417.741 152.937 418.126 152.937ZM422.621 150.341C422.621 149.287 422.87 148.441 423.37 147.802C423.869 147.159 424.523 146.837 425.331 146.837C426.135 146.837 426.772 147.112 427.242 147.662V144.082H428.416V153.832H427.337L427.28 153.096C426.81 153.671 426.156 153.959 425.318 153.959C424.523 153.959 423.873 153.633 423.37 152.982C422.87 152.33 422.621 151.479 422.621 150.43V150.341ZM423.795 150.474C423.795 151.253 423.956 151.862 424.277 152.302C424.599 152.743 425.043 152.963 425.61 152.963C426.355 152.963 426.899 152.628 427.242 151.96V148.805C426.89 148.157 426.351 147.834 425.623 147.834C425.047 147.834 424.599 148.056 424.277 148.5C423.956 148.945 423.795 149.603 423.795 150.474ZM429.933 150.335C429.933 149.662 430.064 149.057 430.327 148.519C430.593 147.982 430.961 147.567 431.431 147.275C431.905 146.983 432.445 146.837 433.05 146.837C433.985 146.837 434.74 147.161 435.316 147.808C435.896 148.456 436.185 149.317 436.185 150.392V150.474C436.185 151.143 436.056 151.744 435.798 152.277C435.544 152.806 435.178 153.219 434.7 153.515C434.226 153.811 433.68 153.959 433.062 153.959C432.131 153.959 431.376 153.635 430.796 152.988C430.221 152.341 429.933 151.484 429.933 150.417V150.335ZM431.114 150.474C431.114 151.236 431.289 151.848 431.641 152.309C431.996 152.77 432.47 153.001 433.062 153.001C433.659 153.001 434.133 152.768 434.484 152.302C434.836 151.833 435.011 151.177 435.011 150.335C435.011 149.581 434.831 148.972 434.472 148.507C434.116 148.037 433.642 147.802 433.05 147.802C432.47 147.802 432.002 148.033 431.647 148.494C431.291 148.955 431.114 149.615 431.114 150.474ZM441.657 152.01C441.657 151.693 441.537 151.448 441.295 151.274C441.058 151.096 440.642 150.944 440.045 150.817C439.452 150.69 438.981 150.538 438.629 150.36C438.282 150.182 438.024 149.971 437.855 149.725C437.69 149.48 437.607 149.188 437.607 148.849C437.607 148.287 437.844 147.81 438.318 147.421C438.796 147.032 439.406 146.837 440.146 146.837C440.925 146.837 441.556 147.038 442.038 147.44C442.525 147.842 442.768 148.356 442.768 148.983H441.587C441.587 148.661 441.45 148.384 441.175 148.151C440.904 147.918 440.561 147.802 440.146 147.802C439.719 147.802 439.385 147.895 439.143 148.081C438.902 148.267 438.782 148.511 438.782 148.811C438.782 149.095 438.894 149.309 439.118 149.452C439.342 149.596 439.747 149.734 440.33 149.865C440.919 149.996 441.395 150.153 441.759 150.335C442.123 150.517 442.391 150.737 442.565 150.995C442.743 151.249 442.831 151.56 442.831 151.928C442.831 152.542 442.586 153.035 442.095 153.407C441.604 153.775 440.967 153.959 440.184 153.959C439.634 153.959 439.148 153.862 438.725 153.667C438.301 153.473 437.969 153.202 437.728 152.855C437.491 152.503 437.372 152.125 437.372 151.719H438.547C438.568 152.112 438.725 152.425 439.017 152.658C439.313 152.886 439.702 153.001 440.184 153.001C440.629 153.001 440.984 152.912 441.251 152.734C441.522 152.552 441.657 152.311 441.657 152.01Z" fill="#636363"/>
<path d="M227.684 143.977C227.569 144.955 227.208 145.71 226.598 146.243C225.993 146.772 225.187 147.037 224.18 147.037C223.088 147.037 222.212 146.645 221.552 145.862C220.896 145.079 220.568 144.032 220.568 142.72V141.832C220.568 140.972 220.72 140.217 221.025 139.565C221.334 138.914 221.77 138.414 222.333 138.067C222.895 137.716 223.547 137.541 224.288 137.541C225.269 137.541 226.056 137.816 226.649 138.366C227.241 138.912 227.586 139.669 227.684 140.638H226.458C226.353 139.902 226.122 139.369 225.767 139.039C225.415 138.708 224.922 138.543 224.288 138.543C223.509 138.543 222.897 138.831 222.453 139.407C222.013 139.982 221.793 140.801 221.793 141.863V142.758C221.793 143.761 222.002 144.559 222.421 145.151C222.84 145.744 223.426 146.04 224.18 146.04C224.857 146.04 225.375 145.888 225.735 145.583C226.099 145.274 226.34 144.739 226.458 143.977H227.684ZM228.858 143.412C228.858 142.739 228.989 142.134 229.251 141.597C229.518 141.059 229.886 140.645 230.356 140.353C230.83 140.061 231.369 139.915 231.975 139.915C232.91 139.915 233.665 140.238 234.241 140.886C234.82 141.533 235.11 142.394 235.11 143.469V143.552C235.11 144.22 234.981 144.821 234.723 145.354C234.469 145.883 234.103 146.296 233.625 146.592C233.151 146.889 232.605 147.037 231.987 147.037C231.056 147.037 230.301 146.713 229.721 146.065C229.146 145.418 228.858 144.561 228.858 143.495V143.412ZM230.039 143.552C230.039 144.313 230.214 144.925 230.565 145.386C230.921 145.847 231.395 146.078 231.987 146.078C232.584 146.078 233.058 145.845 233.409 145.38C233.76 144.91 233.936 144.254 233.936 143.412C233.936 142.659 233.756 142.049 233.396 141.584C233.041 141.114 232.567 140.879 231.975 140.879C231.395 140.879 230.927 141.11 230.572 141.571C230.216 142.033 230.039 142.693 230.039 143.552ZM237.694 140.042L237.732 140.905C238.257 140.245 238.942 139.915 239.789 139.915C241.24 139.915 241.972 140.733 241.985 142.371V146.91H240.811V142.365C240.806 141.87 240.692 141.504 240.468 141.267C240.248 141.03 239.903 140.911 239.433 140.911C239.052 140.911 238.718 141.013 238.43 141.216C238.142 141.419 237.918 141.686 237.757 142.016V146.91H236.583V140.042H237.694ZM245.349 138.378V140.042H246.631V140.949H245.349V145.208C245.349 145.484 245.406 145.691 245.521 145.831C245.635 145.966 245.829 146.034 246.104 146.034C246.24 146.034 246.426 146.008 246.663 145.958V146.91C246.354 146.994 246.054 147.037 245.762 147.037C245.237 147.037 244.841 146.878 244.575 146.561C244.308 146.243 244.175 145.792 244.175 145.208V140.949H242.924V140.042H244.175V138.378H245.349ZM252.249 146.91C252.181 146.774 252.126 146.533 252.084 146.186C251.538 146.753 250.886 147.037 250.129 147.037C249.452 147.037 248.895 146.846 248.459 146.465C248.028 146.08 247.812 145.594 247.812 145.005C247.812 144.29 248.083 143.736 248.625 143.342C249.17 142.944 249.936 142.746 250.922 142.746H252.065V142.206C252.065 141.796 251.942 141.47 251.697 141.229C251.451 140.983 251.09 140.86 250.611 140.86C250.192 140.86 249.841 140.966 249.558 141.178C249.274 141.389 249.132 141.645 249.132 141.946H247.952C247.952 141.603 248.072 141.273 248.313 140.956C248.559 140.634 248.889 140.38 249.304 140.194C249.723 140.008 250.182 139.915 250.681 139.915C251.472 139.915 252.092 140.113 252.541 140.511C252.99 140.905 253.222 141.449 253.239 142.143V145.304C253.239 145.934 253.32 146.436 253.48 146.808V146.91H252.249ZM250.3 146.015C250.668 146.015 251.018 145.919 251.348 145.729C251.678 145.539 251.917 145.291 252.065 144.986V143.577H251.145C249.706 143.577 248.986 143.998 248.986 144.84C248.986 145.208 249.109 145.496 249.354 145.704C249.6 145.911 249.915 146.015 250.3 146.015ZM256.673 138.378V140.042H257.956V140.949H256.673V145.208C256.673 145.484 256.73 145.691 256.845 145.831C256.959 145.966 257.154 146.034 257.429 146.034C257.564 146.034 257.75 146.008 257.987 145.958V146.91C257.678 146.994 257.378 147.037 257.086 147.037C256.561 147.037 256.166 146.878 255.899 146.561C255.632 146.243 255.499 145.792 255.499 145.208V140.949H254.249V140.042H255.499V138.378H256.673ZM258.895 143.412C258.895 142.739 259.026 142.134 259.289 141.597C259.555 141.059 259.923 140.645 260.393 140.353C260.867 140.061 261.407 139.915 262.012 139.915C262.947 139.915 263.702 140.238 264.278 140.886C264.858 141.533 265.147 142.394 265.147 143.469V143.552C265.147 144.22 265.018 144.821 264.76 145.354C264.506 145.883 264.14 146.296 263.662 146.592C263.188 146.889 262.642 147.037 262.024 147.037C261.093 147.037 260.338 146.713 259.758 146.065C259.183 145.418 258.895 144.561 258.895 143.495V143.412ZM260.076 143.552C260.076 144.313 260.251 144.925 260.603 145.386C260.958 145.847 261.432 146.078 262.024 146.078C262.621 146.078 263.095 145.845 263.446 145.38C263.798 144.91 263.973 144.254 263.973 143.412C263.973 142.659 263.793 142.049 263.434 141.584C263.078 141.114 262.604 140.879 262.012 140.879C261.432 140.879 260.964 141.11 260.609 141.571C260.253 142.033 260.076 142.693 260.076 143.552Z" fill="#636363"/>
<defs>
<clipPath id="clip0">
<rect x="17" y="15.471" width="450" height="120.671" fill="white"/>
</clipPath>
</defs>
</svg>
